<svg xmlns="http://www.w3.org/2000/svg" width="683" height="386" viewBox="0 0 683 386" fill="none"><path d="M681.731 187.072C681.336 184.805 651.671 154.072 591.139 93.2712C493.357 -4.94596 498.546 -0.401106 486.141 1.97138C479.605 3.15689 471.587 11.1391 470.373 17.6698C467.946 29.9311 465.42 26.7255 540.585 102.359L609.897 172.246L311.897 171.852L13.7637 171.591L9.08909 175.18C-3.59913 184.885 -1.77595 204.49 12.3432 210.921C17.8042 213.466 24.8705 213.615 313.937 214.257L609.936 214.913L540.849 283.827C479.781 344.758 471.629 353.273 470.284 358.337C466.116 373.928 480.218 388.093 495.96 383.994C500.897 382.672 511.319 372.828 589.624 295.135C649.49 235.668 678.356 205.998 680.097 202.402C682.509 197.207 682.916 193.875 681.731 187.072Z" fill="white"></path></svg>