<svg xmlns="http://www.w3.org/2000/svg" width="30" height="36" viewBox="0 0 30 36" fill="none"><path d="M15.0002 0.666748C6.91292 0.666748 0.333496 7.24617 0.333496 15.3334V15.3476C0.333463 18.0713 1.09191 20.7413 2.52385 23.0582C3.95579 25.3752 6.00465 27.2476 8.44084 28.4657L8.5612 28.526C8.89422 28.6911 9.17433 28.9462 9.36975 29.2624C9.56517 29.5785 9.66808 29.9432 9.66683 30.3149V34.0001C9.66744 34.5303 9.87834 35.0387 10.2533 35.4136C10.6282 35.7886 11.1366 35.9995 11.6668 36.0001H19.0002C19.5304 35.9995 20.0388 35.7886 20.4137 35.4136C20.7886 35.0387 20.9996 34.5303 21.0002 34.0001V30.1569C21.0014 29.8156 21.0894 29.4802 21.2559 29.1822C21.4224 28.8842 21.6619 28.6335 21.9519 28.4535L22.687 28.0012C23.1022 27.7457 23.5068 27.4661 23.8944 27.1705L24.1954 27.4715C24.5856 27.8618 25.1149 28.081 25.6668 28.081C26.2187 28.081 26.748 27.8618 27.1383 27.4715C27.5285 27.0813 27.7478 26.552 27.7478 26.0001C27.7478 25.4482 27.5285 24.9189 27.1383 24.5286L26.8127 24.203C28.6611 21.6811 29.6606 18.6371 29.6668 15.5103V15.3334C29.6668 7.24617 23.0874 0.666748 15.0002 0.666748ZM19.6668 34.0001C19.6666 34.1768 19.5963 34.3463 19.4713 34.4713C19.3464 34.5962 19.1769 34.6665 19.0002 34.6667H11.6668C11.4901 34.6665 11.3206 34.5962 11.1956 34.4713C11.0707 34.3463 11.0004 34.1768 11.0002 34.0001V32.6667H19.6668V34.0001ZM19.6668 30.1569V31.3334H11.0002V30.3149C11 29.9822 10.9504 29.6515 10.8529 29.3334H19.7725C19.7027 29.6024 19.6672 29.879 19.6668 30.1569ZM26.1954 26.5286C26.0551 26.6686 25.865 26.7473 25.6668 26.7473C25.4686 26.7473 25.2785 26.6686 25.1383 26.5286L18.4875 19.8779C18.8945 19.5863 19.2636 19.2453 19.5865 18.8627L26.1954 25.4715C26.3354 25.6118 26.414 25.8019 26.414 26.0001C26.414 26.1983 26.3354 26.3884 26.1954 26.5286ZM8.45671 18.9561L6.17562 19.5944L5.6875 18.5433L7.66716 17.2704L7.32471 14.3841L5.09644 13.5754L5.3243 12.4518L7.69165 12.5758L9.13184 10.0513L7.80461 8.10718L8.66374 7.32967L10.5157 8.8068L13.1777 7.6123L13.2546 5.29443L14.4261 5.16504L15.0455 7.4117L17.9111 7.99333L19.357 6.16577L20.3854 6.7417L19.553 8.90633L21.5389 11.0441L23.82 10.4058L24.3081 11.4569L22.3285 12.7297L22.6707 15.616L24.8993 16.4249L24.6713 17.5483L22.3041 17.4243L21.4794 18.8698L20.3402 17.7305C20.981 16.4768 21.1606 15.0377 20.8475 13.665C20.5343 12.2922 19.7485 11.0733 18.6274 10.2215C17.5063 9.36965 16.1214 8.93917 14.7149 9.00536C13.3085 9.07155 11.9701 9.63019 10.934 10.5835C9.89786 11.5369 9.22995 12.8242 9.04715 14.2203C8.86434 15.6164 9.17827 17.0323 9.93402 18.2203C10.6898 19.4083 11.8392 20.2927 13.1812 20.7187C14.5231 21.1448 15.9722 21.0854 17.2748 20.551L18.4012 21.6774L16.818 22.3879L16.741 24.7057L15.5695 24.8351L14.9501 22.5885L12.0846 22.007L10.6386 23.8344L9.61019 23.2585L10.4426 21.0938L8.45671 18.9561ZM15.0002 19.6667C14.0772 19.6667 13.1749 19.3931 12.4075 18.8803C11.6401 18.3675 11.0419 17.6387 10.6887 16.7859C10.3355 15.9332 10.2431 14.9949 10.4232 14.0897C10.6032 13.1844 11.0477 12.3529 11.7003 11.7002C12.353 11.0476 13.1845 10.6031 14.0897 10.4231C14.995 10.243 15.9333 10.3354 16.786 10.6886C17.6387 11.0419 18.3676 11.64 18.8804 12.4074C19.3931 13.1748 19.6668 14.0771 19.6668 15.0001C19.6654 16.2373 19.1733 17.4235 18.2985 18.2984C17.4236 19.1732 16.2374 19.6654 15.0002 19.6667ZM28.3335 15.5103C28.3278 18.2834 27.4628 20.9867 25.8577 23.248L22.4568 19.8472L23.0549 18.7988L25.7494 18.9399L26.4344 15.5636L23.898 14.6431L23.7507 13.4005L26.007 11.9497L24.552 8.81641L21.9624 9.54101L21.0961 8.60848L22.0444 6.14258L19.0167 4.44702L17.3736 6.52368L16.1132 6.26782L15.4093 3.71501L11.9604 4.09603L11.8726 6.73649L10.7115 7.25749L8.60921 5.58065L6.04793 7.89868L7.56071 10.1146L6.94067 11.2013L4.24617 11.0602L3.56112 14.4365L6.0975 15.3571L6.24496 16.5997L3.98845 18.0505L5.44361 21.1838L8.03321 20.4591L8.8995 21.3917L7.95117 23.8576L10.9789 25.5531L12.622 23.4766L13.8824 23.7323L14.5863 26.2851L18.0353 25.9041L18.123 23.2637L19.41 22.6861L22.9432 26.2194C22.6346 26.4481 22.3147 26.6647 21.9882 26.8657L21.2531 27.3179C20.955 27.502 20.688 27.7322 20.4621 28.0001H10.0675C9.80406 27.7281 9.49645 27.5027 9.15771 27.3335L9.03727 27.2733C6.82253 26.1659 4.9599 24.4637 3.65811 22.3573C2.35633 20.251 1.66681 17.8237 1.66683 15.3476V15.3334C1.66683 7.98136 7.64811 2.00008 15.0002 2.00008C22.3522 2.00008 28.3335 7.98136 28.3335 15.3334V15.5103Z" fill="#086AD7"></path></svg>