<svg xmlns="http://www.w3.org/2000/svg" width="32" height="27" viewBox="0 0 32 27" fill="none"><path d="M31.4885 7.89195L27.1367 1.17172C26.7994 0.650859 26.2276 0.339844 25.607 0.339844H6.40646C5.78686 0.339844 5.21553 0.650078 4.87811 1.16961L0.512793 7.8907C0.066699 8.57742 0.135605 9.48414 0.680371 10.0955L14.6383 25.7659C14.9838 26.1537 15.4797 26.3762 15.9991 26.3762C15.9992 26.3762 15.9991 26.3762 15.9992 26.3762C16.5185 26.3762 17.0146 26.1537 17.3601 25.7659L31.3196 10.0947C31.8636 9.48398 31.933 8.5782 31.4885 7.89195ZM24.7254 1.90227L21.0656 7.56164L17.4036 1.90227H24.7254ZM19.6297 8.21883H12.3685L15.9991 2.60797L19.6297 8.21883ZM14.5947 1.90242L10.9427 7.54625L7.29201 1.90242H14.5947ZM5.8474 2.54578L9.51693 8.21883H2.16279L5.8474 2.54578ZM2.49279 9.78133H10.3557L14.5132 23.2762L2.49279 9.78133ZM15.9991 22.7925L11.9906 9.78133H20.0076L15.9991 22.7925ZM17.485 23.2767L21.6426 9.78141H29.5062L17.485 23.2767ZM22.5015 8.21883L26.1676 2.54969L29.8386 8.21883H22.5015Z" fill="#086AD7"></path></svg>