<svg xmlns="http://www.w3.org/2000/svg" width="40" height="41" viewBox="0 0 40 41" fill="none"><path d="M39.7657 34.6832L28.5566 23.4741C28.2439 23.1616 27.7372 23.1616 27.4245 23.4741L27.2349 23.6637L24.8453 21.2739C26.3402 19.0894 27.216 16.4492 27.216 13.608C27.216 6.10457 21.1114 0 13.608 0C6.10457 0 0 6.10457 0 13.608C0 21.1115 6.10457 27.216 13.608 27.216C16.4492 27.216 19.0894 26.3402 21.2741 24.8452L23.6638 27.2349L23.4624 27.4363C23.1499 27.7489 23.1499 28.2557 23.4624 28.5684L34.6715 39.7774C34.9842 40.0899 35.4909 40.0899 35.8036 39.7774L39.7658 35.8153C40.078 35.5029 40.0782 34.996 39.7657 34.6832ZM1.60079 13.6081C1.60079 6.98741 6.98717 1.60103 13.6079 1.60103C20.2286 1.60103 25.6149 6.98741 25.6149 13.6081C25.6149 20.2288 20.2286 25.6151 13.6079 25.6151C6.98717 25.6151 1.60079 20.2288 1.60079 13.6081ZM23.8611 22.5541L26.084 24.7769L24.7768 26.0841L22.5539 23.8612C23.0186 23.4555 23.4554 23.0188 23.8611 22.5541ZM35.2373 38.0793L25.1603 28.0024L27.9904 25.1722L38.0675 35.2493L35.2373 38.0793Z" fill="#086AD7"></path></svg>