<svg xmlns="http://www.w3.org/2000/svg" width="21" height="14" viewBox="0 0 21 14" fill="none"><path d="M19.9258 1.6171C19.8243 1.37275 19.6301 1.17858 19.3858 1.0771C19.2656 1.02586 19.1365 0.998681 19.0058 0.997101H14.0058C13.7406 0.997101 13.4862 1.10246 13.2987 1.28999C13.1112 1.47753 13.0058 1.73188 13.0058 1.9971C13.0058 2.26232 13.1112 2.51667 13.2987 2.70421C13.4862 2.89174 13.7406 2.9971 14.0058 2.9971H16.5958L11.0058 8.5871L7.7158 5.2871C7.62284 5.19337 7.51223 5.11898 7.39038 5.06821C7.26852 5.01744 7.13781 4.9913 7.0058 4.9913C6.87379 4.9913 6.74308 5.01744 6.62122 5.06821C6.49936 5.11898 6.38876 5.19337 6.2958 5.2871L0.295798 11.2871C0.20207 11.3801 0.127676 11.4907 0.0769069 11.6125C0.0261382 11.7344 0 11.8651 0 11.9971C0 12.1291 0.0261382 12.2598 0.0769069 12.3817C0.127676 12.5035 0.20207 12.6141 0.295798 12.7071C0.388761 12.8008 0.499363 12.8752 0.621222 12.926C0.743081 12.9768 0.873786 13.0029 1.0058 13.0029C1.13781 13.0029 1.26852 12.9768 1.39037 12.926C1.51223 12.8752 1.62284 12.8008 1.7158 12.7071L7.0058 7.4071L10.2958 10.7071C10.3888 10.8008 10.4994 10.8752 10.6212 10.926C10.7431 10.9768 10.8738 11.0029 11.0058 11.0029C11.1378 11.0029 11.2685 10.9768 11.3904 10.926C11.5122 10.8752 11.6228 10.8008 11.7158 10.7071L18.0058 4.4071V6.9971C18.0058 7.26232 18.1112 7.51667 18.2987 7.70421C18.4862 7.89174 18.7406 7.9971 19.0058 7.9971C19.271 7.9971 19.5254 7.89174 19.7129 7.70421C19.9004 7.51667 20.0058 7.26232 20.0058 6.9971V1.9971C20.0042 1.86642 19.977 1.73732 19.9258 1.6171Z" fill="white"></path></svg>