<?xml version="1.0" encoding="UTF-8"?>
<svg xmlns="http://www.w3.org/2000/svg" xmlns:xlink="http://www.w3.org/1999/xlink" version="1.1" id="Layer_1" x="0px" y="0px" viewBox="0 0 1000 1000" style="enable-background:new 0 0 1000 1000;" xml:space="preserve">
<style type="text/css">
	.st0{fill:#153969;}
	.st1{fill:#718BAB;}
	.st2{fill:url(#SVGID_1_);}
	.st3{fill:url(#SVGID_00000082367718975846740560000005217021535417503123_);}
	.st4{fill:url(#SVGID_00000178914103796055834370000011331864423911112578_);}
	.st5{fill:url(#SVGID_00000120540564308097376490000008467009053415714739_);}
	.st6{fill:url(#SVGID_00000127730212471854973350000015119657131647924398_);}
	.st7{fill:url(#SVGID_00000088098059227250813030000003116694592093755811_);}
	.st8{fill:url(#SVGID_00000143579528190192353960000007685705081889839295_);}
	.st9{fill:url(#SVGID_00000098926535871775168590000005678947314972939427_);}
	.st10{fill:url(#SVGID_00000108305878971662978210000002547531542330181254_);}
</style>
<g id="Sancorp_Logo">
	<g id="Sancorp_Text">
		<g id="Sancorp_Text_00000108993913723154632370000015881514694100356787_">
			<g>
				<path class="st0" d="M518,513.1h-30l-33.9-44.1h-0.4v44.1h-21v-61.6h30.8l33.2,43.9h0.4v-43.9H518L518,513.1L518,513.1z"></path>
				<path class="st0" d="M571.6,513.8c-6,0-11.2-0.2-15.6-0.5c-4.4-0.3-8.2-0.9-11.3-1.6c-3.1-0.8-5.7-1.9-7.6-3.3      c-2-1.4-3.5-3.3-4.7-5.6c-1.1-2.3-1.9-5-2.3-8.3c-0.4-3.2-0.6-7.1-0.6-11.6v-1.3c0-6.7,0.5-12,1.5-16c1-4,3-7.2,6-9.4      c3-2.2,7.3-3.6,12.8-4.4c5.5-0.7,12.9-1.1,21.9-1.1h2.9c8,0,14.5,0.3,19.5,0.9c5,0.6,8.8,1.6,11.5,3.2c2.7,1.5,4.6,3.7,5.5,6.4      c1,2.7,1.4,6.2,1.4,10.4v3.8h-21.7v-2.2c0-1.2-0.2-2.2-0.5-3.1c-0.3-0.8-1-1.5-2.2-1.9c-1.1-0.5-2.9-0.8-5.1-1.1      c-2.2-0.2-5.3-0.3-9.2-0.3h-1.6c-5,0-8.9,0.1-11.7,0.4c-2.8,0.3-4.8,0.9-6.2,1.9c-1.3,1-2.2,2.5-2.5,4.5c-0.3,2-0.4,4.6-0.4,8      v0.7c0,3.3,0.1,6,0.4,7.9c0.3,2,1.1,3.5,2.5,4.5c1.3,1.1,3.4,1.7,6.2,2c2.8,0.3,6.6,0.5,11.7,0.5h1.6c4.2,0,7.4-0.1,9.8-0.3      c2.4-0.2,4.1-0.6,5.3-1.1c1.1-0.6,1.9-1.3,2.1-2.3c0.3-1,0.4-2.2,0.4-3.7v-1.9H613v4.4c0,4-0.5,7.4-1.4,10.1      c-1,2.7-2.8,4.9-5.5,6.5c-2.8,1.6-6.6,2.8-11.7,3.5c-5,0.7-11.7,1.1-19.9,1.1L571.6,513.8L571.6,513.8z"></path>
				<path class="st0" d="M665.1,513.8c-6.2,0-11.5-0.1-16-0.4c-4.5-0.3-8.3-0.8-11.5-1.6c-3.2-0.8-5.7-1.9-7.7-3.3      c-2-1.4-3.5-3.3-4.6-5.6s-1.8-5.1-2.2-8.3c-0.4-3.2-0.6-7.1-0.6-11.6v-1.4c0-4.5,0.2-8.3,0.6-11.6c0.4-3.2,1.1-6,2.2-8.3      c1.1-2.3,2.6-4.1,4.6-5.6c2-1.4,4.6-2.6,7.7-3.3c3.2-0.8,7-1.3,11.5-1.6c4.5-0.3,9.8-0.4,16-0.4h2.8c6.2,0,11.5,0.1,16,0.4      c4.5,0.3,8.3,0.8,11.5,1.6c3.2,0.8,5.7,1.9,7.6,3.3c2,1.4,3.5,3.3,4.6,5.6c1.1,2.3,1.8,5,2.2,8.3c0.4,3.2,0.6,7.1,0.6,11.6v1.4      c0,4.5-0.2,8.3-0.6,11.6c-0.4,3.2-1.1,6-2.2,8.3c-1.1,2.3-2.6,4.2-4.6,5.6c-2,1.4-4.5,2.5-7.6,3.3c-3.2,0.8-7,1.3-11.5,1.6      c-4.5,0.3-9.8,0.4-16,0.4H665.1z M667.4,497.4c5,0,8.9-0.1,11.7-0.4c2.8-0.3,4.9-0.9,6.3-1.9c1.4-1,2.3-2.5,2.6-4.5      c0.3-2,0.5-4.7,0.5-8.1v-0.7c0-3.4-0.2-6.1-0.5-8.1s-1.2-3.5-2.6-4.5c-1.4-1-3.5-1.6-6.3-1.9c-2.8-0.3-6.7-0.4-11.7-0.4h-1.6      c-5,0-9,0.1-11.8,0.4c-2.9,0.3-5,0.9-6.3,1.9c-1.4,1-2.2,2.5-2.5,4.5c-0.3,2-0.5,4.7-0.5,8.1v0.7c0,3.4,0.2,6.1,0.5,8.1      c0.3,2,1.1,3.4,2.5,4.5c1.4,1,3.5,1.7,6.3,1.9c2.9,0.3,6.8,0.4,11.8,0.4H667.4z"></path>
				<path class="st0" d="M799.8,513.1h-21.5v-5.7c0-2.5-0.2-4.5-0.6-5.9c-0.4-1.5-1.2-2.6-2.5-3.4s-3.1-1.3-5.5-1.5      c-2.4-0.2-5.7-0.4-9.8-0.4h-16.6v17h-21.6v-61.6h50.4c5.5,0,10.1,0.3,13.7,0.9c3.6,0.6,6.4,1.6,8.4,3.1c2.1,1.5,3.5,3.4,4.3,5.8      c0.8,2.4,1.2,5.4,1.2,9.1v2.2c0,4.3-0.8,7.7-2.2,10.1c-1.5,2.5-3.9,4.3-7.3,5.5v0.3c1.9,0.4,3.4,1,4.7,1.6      c1.2,0.6,2.2,1.5,3,2.6c0.7,1.1,1.2,2.5,1.5,4.1c0.3,1.7,0.4,3.7,0.4,6.2L799.8,513.1L799.8,513.1z M764.7,481.5      c3,0,5.3-0.1,7.1-0.2c1.7-0.2,3.1-0.5,4-1c0.9-0.5,1.5-1.2,1.8-2.1c0.3-0.9,0.4-2.1,0.4-3.7v-1.1c0-1.5-0.1-2.7-0.4-3.6      c-0.3-0.9-0.9-1.6-1.8-2.1c-0.9-0.5-2.2-0.9-4-1c-1.7-0.2-4.1-0.2-7.1-0.2h-21.3v15.1L764.7,481.5L764.7,481.5z"></path>
				<path class="st0" d="M833.7,513.1h-21.8v-61.6h44.3c6.5,0,11.9,0.3,16,0.9c4.2,0.6,7.4,1.7,9.8,3.2c2.4,1.6,4,3.8,4.9,6.8      c0.9,2.9,1.3,6.7,1.3,11.3v1.5c0,4.7-0.5,8.5-1.3,11.4c-0.9,2.9-2.5,5.2-4.9,6.8c-2.4,1.6-5.6,2.7-9.8,3.2      c-4.2,0.6-9.5,0.8-16,0.8h-22.6V513.1z M853,482.3c3.2,0,5.8-0.1,7.6-0.2c1.8-0.2,3.2-0.5,4.2-1.1c1-0.6,1.6-1.3,1.8-2.3      c0.2-1,0.4-2.3,0.4-3.9V474c0-1.7-0.1-3.1-0.4-4c-0.2-1-0.9-1.8-1.8-2.3c-1-0.6-2.4-0.9-4.2-1.1c-1.8-0.2-4.4-0.2-7.6-0.2h-19.3      v15.9L853,482.3L853,482.3z"></path>
			</g>
			<g>
				<polygon class="st0" points="387.1,451 409.6,490.3 391.7,490.3 378,466.9     "></polygon>
				<polygon class="st0" points="414,498.3 387.1,498.3 378.2,513.4 422.7,513.4     "></polygon>
				<polygon class="st0" points="373.8,474.2 382.2,488.9 369.1,513.4 351.5,513.4     "></polygon>
			</g>
			<g>
				<path class="st0" d="M305.9,513.4c-6,0-11.2-0.1-15.6-0.3c-4.3-0.2-8-0.6-10.9-1.1c-3-0.6-5.3-1.3-7.2-2.2      c-1.8-0.9-3.2-2-4.2-3.4c-1-1.3-1.6-3-1.9-4.8c-0.3-1.8-0.5-4-0.5-6.5v-2.3h21.9v1.3c0,0.9,0.2,1.7,0.6,2.3      c0.4,0.6,1.1,1.1,2.3,1.4c1.1,0.4,2.9,0.6,5.1,0.8c2.2,0.2,5.2,0.2,8.9,0.2h2.5c4.1,0,7.3-0.1,9.6-0.2s4.1-0.4,5.3-0.8      c1.2-0.4,1.9-0.9,2.2-1.5c0.3-0.6,0.4-1.4,0.4-2.3v-0.6c0-0.9-0.2-1.7-0.5-2.3c-0.3-0.6-1.1-1.1-2.4-1.5      c-1.3-0.4-3.2-0.7-5.7-0.8c-2.5-0.2-5.9-0.2-10.3-0.2c-5.9,0-11-0.1-15.3-0.4c-4.3-0.2-7.9-0.6-10.8-1.2c-2.9-0.6-5.2-1.3-7-2.2      c-1.7-1-3.1-2.1-4-3.5c-1-1.4-1.5-3.1-1.9-5c-0.3-1.9-0.5-4.2-0.5-6.8v-1.1c0-3.4,0.4-6.3,1.3-8.7c0.9-2.3,2.6-4.2,5.1-5.6      c2.5-1.4,6.1-2.4,10.6-3c4.5-0.6,10.4-0.9,17.7-0.9h3.8c5.8,0,10.8,0.1,15,0.4c4.2,0.2,7.7,0.6,10.6,1.1      c2.9,0.5,5.2,1.2,6.9,2.1c1.7,0.9,3.1,2,4,3.3c1,1.3,1.5,2.9,1.9,4.7c0.3,1.8,0.5,3.9,0.5,6.3v1.4h-21.1v-0.7      c0-0.8-0.1-1.4-0.4-2c-0.2-0.6-0.9-1-1.8-1.3c-1-0.4-2.5-0.6-4.4-0.8c-2-0.2-4.7-0.3-8.2-0.3h-2.8c-4,0-7.3,0.1-9.6,0.2      c-2.3,0.1-4.1,0.4-5.3,0.7c-1.2,0.4-1.9,0.8-2.2,1.4c-0.3,0.6-0.5,1.3-0.5,2.2v0.6c0,0.9,0.2,1.6,0.5,2.2c0.3,0.6,1.1,1,2.5,1.3      c1.3,0.3,3.3,0.6,6.1,0.7c2.7,0.1,6.5,0.2,11.3,0.2c8.2,0,14.7,0.3,19.7,0.9c5,0.6,8.8,1.6,11.5,3c2.7,1.4,4.5,3.3,5.4,5.7      c0.9,2.4,1.3,5.5,1.3,9.3v1.3c0,3.6-0.4,6.7-1.3,9.2c-0.9,2.5-2.6,4.5-5.3,5.9c-2.6,1.5-6.3,2.6-11.1,3.2      c-4.8,0.7-11.1,1-18.9,1L305.9,513.4L305.9,513.4z"></path>
			</g>
		</g>
		<g id="Sub_Text">
			<path class="st1" d="M288.2,549.8c-1.9,0-3.6,0-5-0.1c-1.4-0.1-2.6-0.2-3.5-0.4c-1-0.2-1.7-0.4-2.3-0.7c-0.6-0.3-1.1-0.7-1.3-1.1     c-0.3-0.4-0.5-1-0.6-1.5c-0.1-0.6-0.1-1.3-0.1-2.1v-0.7h7v0.4c0,0.3,0.1,0.5,0.2,0.7c0.1,0.2,0.4,0.4,0.8,0.5     c0.4,0.1,0.9,0.2,1.6,0.3c0.7,0,1.7,0.1,2.9,0.1h0.8c1.3,0,2.4,0,3.1-0.1c0.8,0,1.3-0.1,1.7-0.3c0.4-0.1,0.6-0.3,0.7-0.5     c0.1-0.2,0.1-0.5,0.1-0.8v-0.2c0-0.3-0.1-0.5-0.2-0.7c-0.1-0.2-0.4-0.4-0.8-0.5c-0.4-0.1-1-0.2-1.8-0.3c-0.8,0-1.9-0.1-3.3-0.1     c-1.9,0-3.6,0-5-0.1c-1.4-0.1-2.6-0.2-3.5-0.4c-1-0.2-1.7-0.4-2.3-0.7c-0.6-0.3-1-0.7-1.3-1.1c-0.3-0.5-0.5-1-0.6-1.6     s-0.1-1.3-0.1-2.2v-0.4c0-1.1,0.1-2,0.4-2.8c0.3-0.8,0.8-1.3,1.6-1.8c0.8-0.5,2-0.8,3.4-1c1.5-0.2,3.4-0.3,5.7-0.3h1.2     c1.9,0,3.5,0,4.8,0.1c1.3,0.1,2.5,0.2,3.4,0.4c0.9,0.2,1.7,0.4,2.2,0.7c0.6,0.3,1,0.7,1.3,1.1c0.3,0.4,0.5,1,0.6,1.5     c0.1,0.6,0.1,1.2,0.1,2v0.5h-6.8v-0.2c0-0.3,0-0.5-0.1-0.7c-0.1-0.2-0.3-0.3-0.6-0.4c-0.3-0.1-0.8-0.2-1.4-0.3s-1.5-0.1-2.6-0.1     h-0.9c-1.3,0-2.3,0-3.1,0.1c-0.8,0-1.3,0.1-1.7,0.2c-0.4,0.1-0.6,0.3-0.7,0.5s-0.1,0.4-0.1,0.7v0.2c0,0.3,0,0.5,0.1,0.7     c0.1,0.2,0.4,0.3,0.8,0.4c0.4,0.1,1.1,0.2,2,0.2c0.9,0,2.1,0.1,3.6,0.1c2.6,0,4.8,0.1,6.4,0.3c1.6,0.2,2.9,0.5,3.7,1     c0.9,0.5,1.4,1.1,1.7,1.9c0.3,0.8,0.4,1.8,0.4,3v0.4c0,1.2-0.1,2.2-0.4,3c-0.3,0.8-0.9,1.4-1.7,1.9c-0.9,0.5-2,0.8-3.6,1.1     c-1.5,0.2-3.6,0.3-6.1,0.3L288.2,549.8L288.2,549.8z"></path>
			<path class="st1" d="M343.2,549.5H320v-19.9h22.8v4.8h-15.9v2.8H342v4.5h-15.1v3h16.3L343.2,549.5L343.2,549.5z"></path>
			<path class="st1" d="M395.2,549.5h-6.8v-13.4h-0.1l-7.3,13.4h-5.3l-7.1-13.4h-0.1v13.4h-6.8v-19.9h9.6l7.2,13.4h0.1l7.1-13.4h9.5     V549.5z"></path>
			<path class="st1" d="M421.9,549.5h-7v-19.9h7V549.5z"></path>
			<path class="st1" d="M454.8,549.8c-1.9,0-3.6,0-5.1-0.1c-1.4-0.1-2.7-0.3-3.6-0.5c-1-0.3-1.8-0.6-2.5-1.1     c-0.7-0.5-1.1-1.1-1.5-1.8s-0.6-1.6-0.8-2.7c-0.1-1.1-0.2-2.3-0.2-3.7v-0.4c0-2.1,0.2-3.9,0.5-5.2s1-2.3,1.9-3     c1-0.7,2.3-1.2,4.1-1.4c1.8-0.2,4.2-0.4,7.1-0.4h1c2.6,0,4.7,0.1,6.3,0.3c1.6,0.2,2.9,0.5,3.7,1c0.9,0.5,1.5,1.2,1.8,2.1     c0.3,0.9,0.5,2,0.5,3.4v1.2h-7v-0.7c0-0.4,0-0.7-0.1-1c-0.1-0.3-0.3-0.5-0.7-0.6c-0.4-0.2-0.9-0.3-1.6-0.3     c-0.7-0.1-1.7-0.1-3-0.1h-0.5c-1.6,0-2.9,0-3.8,0.1c-0.9,0.1-1.5,0.3-2,0.6c-0.4,0.3-0.7,0.8-0.8,1.4c-0.1,0.6-0.1,1.5-0.1,2.6     v0.2c0,1.1,0,1.9,0.1,2.6c0.1,0.6,0.4,1.1,0.8,1.5c0.4,0.3,1.1,0.6,2,0.7s2.1,0.1,3.8,0.1h0.5c1.3,0,2.4,0,3.2-0.1     c0.8-0.1,1.3-0.2,1.7-0.4c0.4-0.2,0.6-0.4,0.7-0.7c0.1-0.3,0.1-0.7,0.1-1.2v-0.6h6.9v1.4c0,1.3-0.2,2.4-0.5,3.3     c-0.3,0.9-0.9,1.6-1.8,2.1c-0.9,0.5-2.1,0.9-3.8,1.1c-1.6,0.2-3.7,0.3-6.4,0.3L454.8,549.8L454.8,549.8z"></path>
			<path class="st1" d="M500.5,549.8c-2,0-3.7,0-5.2-0.1s-2.7-0.3-3.7-0.5c-1-0.3-1.8-0.6-2.5-1.1c-0.7-0.5-1.1-1.1-1.5-1.8     c-0.4-0.8-0.6-1.6-0.7-2.7c-0.1-1.1-0.2-2.3-0.2-3.7v-0.5c0-1.4,0.1-2.7,0.2-3.7c0.1-1.1,0.4-1.9,0.7-2.7     c0.4-0.7,0.9-1.3,1.5-1.8c0.7-0.5,1.5-0.8,2.5-1.1s2.3-0.4,3.7-0.5c1.4-0.1,3.2-0.1,5.2-0.1h0.9c2,0,3.7,0,5.2,0.1     c1.4,0.1,2.7,0.3,3.7,0.5c1,0.3,1.8,0.6,2.5,1.1c0.6,0.5,1.1,1.1,1.5,1.8c0.4,0.7,0.6,1.6,0.7,2.7c0.1,1.1,0.2,2.3,0.2,3.7v0.5     c0,1.4-0.1,2.7-0.2,3.7s-0.4,1.9-0.7,2.7c-0.4,0.8-0.9,1.3-1.5,1.8c-0.6,0.5-1.4,0.8-2.5,1.1s-2.3,0.4-3.7,0.5     c-1.4,0.1-3.2,0.1-5.2,0.1H500.5z M501.2,544.5c1.6,0,2.9,0,3.8-0.1c0.9-0.1,1.6-0.3,2-0.6c0.5-0.3,0.7-0.8,0.8-1.4     c0.1-0.6,0.2-1.5,0.2-2.6v-0.2c0-1.1-0.1-2-0.2-2.6c-0.1-0.7-0.4-1.1-0.8-1.4c-0.5-0.3-1.1-0.5-2-0.6c-0.9-0.1-2.2-0.1-3.8-0.1     h-0.5c-1.6,0-2.9,0-3.8,0.1c-0.9,0.1-1.6,0.3-2,0.6c-0.5,0.3-0.7,0.8-0.8,1.4c-0.1,0.7-0.1,1.5-0.1,2.6v0.2c0,1.1,0,2,0.1,2.6     c0.1,0.6,0.4,1.1,0.8,1.4c0.5,0.3,1.1,0.6,2,0.6c0.9,0.1,2.2,0.1,3.8,0.1H501.2z"></path>
			<path class="st1" d="M561.8,549.5h-9.7l-11-14.2H541v14.2h-6.8v-19.9h9.9l10.7,14.2h0.1v-14.2h6.8L561.8,549.5L561.8,549.5z"></path>
			<path class="st1" d="M609.4,539.8c0,1.4-0.1,2.6-0.2,3.6c-0.1,1-0.3,1.9-0.7,2.6c-0.3,0.7-0.8,1.3-1.4,1.7     c-0.6,0.5-1.4,0.8-2.4,1.1c-1,0.3-2.2,0.4-3.7,0.5c-1.5,0.1-3.2,0.1-5.2,0.1h-14.3v-19.9h14.3c2,0,3.7,0,5.1,0.1     c1.4,0.1,2.7,0.2,3.6,0.5c1,0.2,1.8,0.6,2.4,1c0.6,0.4,1.1,1,1.5,1.7c0.4,0.7,0.6,1.6,0.7,2.6c0.1,1,0.2,2.3,0.2,3.7L609.4,539.8     L609.4,539.8z M595.3,544.3c1.7,0,3,0,3.9-0.1c1-0.1,1.6-0.3,2.1-0.6c0.5-0.3,0.8-0.8,0.9-1.4c0.1-0.6,0.2-1.4,0.2-2.4v-0.4     c0-1-0.1-1.8-0.2-2.4c-0.1-0.6-0.4-1.1-0.9-1.4c-0.5-0.3-1.2-0.5-2.1-0.6c-1-0.1-2.3-0.1-3.9-0.1h-6.8v9.5L595.3,544.3     L595.3,544.3z"></path>
			<path class="st1" d="M641.2,549.8c-2.6,0-4.7-0.1-6.3-0.4s-3-0.6-3.9-1.2c-1-0.6-1.6-1.3-2-2.3c-0.4-1-0.6-2.2-0.6-3.7v-12.5h7     v10.7c0,0.9,0.1,1.5,0.2,2.1c0.1,0.5,0.4,1,0.8,1.2c0.4,0.3,1,0.5,1.8,0.6c0.8,0.1,1.8,0.2,3.1,0.2h0.5c1.3,0,2.3-0.1,3.1-0.2     s1.3-0.3,1.8-0.6c0.4-0.3,0.7-0.7,0.8-1.2c0.1-0.5,0.2-1.2,0.2-2.1v-10.7h7v12.5c0,1.5-0.2,2.8-0.5,3.7c-0.3,1-1,1.8-1.9,2.3     c-1,0.6-2.2,1-3.9,1.2c-1.7,0.2-3.8,0.4-6.4,0.4L641.2,549.8L641.2,549.8z"></path>
			<path class="st1" d="M687.4,549.8c-1.9,0-3.6,0-5.1-0.1s-2.7-0.3-3.6-0.5c-1-0.3-1.8-0.6-2.5-1.1c-0.7-0.5-1.1-1.1-1.5-1.8     c-0.4-0.7-0.6-1.6-0.8-2.7c-0.1-1.1-0.2-2.3-0.2-3.7v-0.4c0-2.1,0.2-3.9,0.5-5.2s1-2.3,1.9-3c1-0.7,2.3-1.2,4.1-1.4     c1.8-0.2,4.2-0.4,7.1-0.4h1c2.6,0,4.7,0.1,6.3,0.3c1.6,0.2,2.9,0.5,3.7,1c0.9,0.5,1.5,1.2,1.8,2.1c0.3,0.9,0.5,2,0.5,3.4v1.2h-7     v-0.7c0-0.4,0-0.7-0.1-1c-0.1-0.3-0.3-0.5-0.7-0.6c-0.4-0.2-0.9-0.3-1.6-0.3s-1.7-0.1-3-0.1h-0.5c-1.6,0-2.9,0-3.8,0.1     c-0.9,0.1-1.5,0.3-2,0.6c-0.4,0.3-0.7,0.8-0.8,1.4c-0.1,0.6-0.1,1.5-0.1,2.6v0.2c0,1.1,0,1.9,0.1,2.6c0.1,0.6,0.4,1.1,0.8,1.5     c0.4,0.3,1.1,0.6,2,0.7s2.1,0.1,3.8,0.1h0.5c1.3,0,2.4,0,3.2-0.1c0.8-0.1,1.3-0.2,1.7-0.4c0.4-0.2,0.6-0.4,0.7-0.7     c0.1-0.3,0.1-0.7,0.1-1.2v-0.6h6.9v1.4c0,1.3-0.2,2.4-0.5,3.3c-0.3,0.9-0.9,1.6-1.8,2.1c-0.9,0.5-2.1,0.9-3.8,1.1     c-1.6,0.2-3.7,0.3-6.4,0.3L687.4,549.8L687.4,549.8z"></path>
			<path class="st1" d="M733.2,549.5h-7v-14.7h-8.7v-5.2h24.4v5.2h-8.7V549.5z"></path>
			<path class="st1" d="M772.2,549.8c-2,0-3.7,0-5.2-0.1c-1.4-0.1-2.7-0.3-3.7-0.5c-1-0.3-1.8-0.6-2.5-1.1c-0.7-0.5-1.1-1.1-1.5-1.8     c-0.4-0.8-0.6-1.6-0.7-2.7s-0.2-2.3-0.2-3.7v-0.5c0-1.4,0.1-2.7,0.2-3.7c0.1-1.1,0.4-1.9,0.7-2.7c0.4-0.7,0.9-1.3,1.5-1.8     c0.7-0.5,1.5-0.8,2.5-1.1c1-0.3,2.3-0.4,3.7-0.5c1.4-0.1,3.2-0.1,5.2-0.1h0.9c2,0,3.7,0,5.2,0.1c1.4,0.1,2.7,0.3,3.7,0.5     c1,0.3,1.8,0.6,2.5,1.1c0.6,0.5,1.1,1.1,1.5,1.8c0.4,0.7,0.6,1.6,0.7,2.7c0.1,1.1,0.2,2.3,0.2,3.7v0.5c0,1.4-0.1,2.7-0.2,3.7     c-0.1,1.1-0.4,1.9-0.7,2.7c-0.4,0.8-0.9,1.3-1.5,1.8c-0.6,0.5-1.4,0.8-2.5,1.1c-1,0.3-2.3,0.4-3.7,0.5c-1.4,0.1-3.2,0.1-5.2,0.1     H772.2z M772.9,544.5c1.6,0,2.9,0,3.8-0.1c0.9-0.1,1.6-0.3,2-0.6c0.5-0.3,0.7-0.8,0.8-1.4c0.1-0.6,0.2-1.5,0.2-2.6v-0.2     c0-1.1-0.1-2-0.2-2.6c-0.1-0.7-0.4-1.1-0.8-1.4c-0.5-0.3-1.1-0.5-2-0.6c-0.9-0.1-2.2-0.1-3.8-0.1h-0.5c-1.6,0-2.9,0-3.8,0.1     c-0.9,0.1-1.6,0.3-2,0.6c-0.5,0.3-0.7,0.8-0.8,1.4c-0.1,0.7-0.1,1.5-0.1,2.6v0.2c0,1.1,0,2,0.1,2.6c0.1,0.6,0.4,1.1,0.8,1.4     s1.1,0.6,2,0.6c0.9,0.1,2.2,0.1,3.8,0.1H772.9z"></path>
			<path class="st1" d="M831.2,549.5h-6.9v-1.8c0-0.8-0.1-1.4-0.2-1.9c-0.1-0.5-0.4-0.9-0.8-1.1c-0.4-0.3-1-0.4-1.8-0.5     c-0.8-0.1-1.8-0.1-3.2-0.1H813v5.5h-7v-19.9h16.3c1.8,0,3.3,0.1,4.4,0.3c1.1,0.2,2.1,0.5,2.7,1c0.7,0.5,1.1,1.1,1.4,1.9     c0.3,0.8,0.4,1.8,0.4,2.9v0.7c0,1.4-0.2,2.5-0.7,3.3c-0.5,0.8-1.2,1.4-2.4,1.8v0.1c0.6,0.1,1.1,0.3,1.5,0.5     c0.4,0.2,0.7,0.5,1,0.8c0.2,0.4,0.4,0.8,0.5,1.3c0.1,0.5,0.1,1.2,0.1,2L831.2,549.5L831.2,549.5z M819.9,539.3c1,0,1.7,0,2.3-0.1     c0.6,0,1-0.2,1.3-0.3c0.3-0.2,0.5-0.4,0.6-0.7c0.1-0.3,0.1-0.7,0.1-1.2v-0.4c0-0.5,0-0.9-0.1-1.2c-0.1-0.3-0.3-0.5-0.6-0.7     c-0.3-0.2-0.7-0.3-1.3-0.3c-0.6,0-1.3-0.1-2.3-0.1H813v4.9L819.9,539.3L819.9,539.3z"></path>
			<path class="st1" d="M863,549.8c-1.9,0-3.6,0-5-0.1c-1.4-0.1-2.6-0.2-3.5-0.4c-1-0.2-1.7-0.4-2.3-0.7c-0.6-0.3-1.1-0.7-1.3-1.1     c-0.3-0.4-0.5-1-0.6-1.5c-0.1-0.6-0.1-1.3-0.1-2.1v-0.7h7.1v0.4c0,0.3,0.1,0.5,0.2,0.7c0.1,0.2,0.4,0.4,0.8,0.5     c0.4,0.1,0.9,0.2,1.6,0.3c0.7,0,1.7,0.1,2.9,0.1h0.8c1.3,0,2.4,0,3.1-0.1c0.8,0,1.3-0.1,1.7-0.3c0.4-0.1,0.6-0.3,0.7-0.5     c0.1-0.2,0.1-0.5,0.1-0.8v-0.2c0-0.3-0.1-0.5-0.2-0.7c-0.1-0.2-0.4-0.4-0.8-0.5c-0.4-0.1-1-0.2-1.8-0.3c-0.8,0-1.9-0.1-3.3-0.1     c-1.9,0-3.6,0-5-0.1c-1.4-0.1-2.6-0.2-3.5-0.4c-1-0.2-1.7-0.4-2.3-0.7c-0.6-0.3-1-0.7-1.3-1.1c-0.3-0.5-0.5-1-0.6-1.6     c-0.1-0.6-0.1-1.3-0.1-2.2v-0.4c0-1.1,0.1-2,0.4-2.8c0.3-0.8,0.8-1.3,1.6-1.8c0.8-0.5,2-0.8,3.4-1c1.5-0.2,3.4-0.3,5.7-0.3h1.2     c1.9,0,3.5,0,4.8,0.1c1.3,0.1,2.5,0.2,3.4,0.4c0.9,0.2,1.7,0.4,2.2,0.7c0.6,0.3,1,0.7,1.3,1.1c0.3,0.4,0.5,1,0.6,1.5     c0.1,0.6,0.1,1.2,0.1,2v0.5h-6.8v-0.2c0-0.3,0-0.5-0.1-0.7c-0.1-0.2-0.3-0.3-0.6-0.4c-0.3-0.1-0.8-0.2-1.4-0.3s-1.5-0.1-2.6-0.1     h-0.9c-1.3,0-2.3,0-3.1,0.1c-0.8,0-1.3,0.1-1.7,0.2c-0.4,0.1-0.6,0.3-0.7,0.5c-0.1,0.2-0.1,0.4-0.1,0.7v0.2c0,0.3,0,0.5,0.1,0.7     c0.1,0.2,0.4,0.3,0.8,0.4c0.4,0.1,1.1,0.2,2,0.2c0.9,0,2.1,0.1,3.6,0.1c2.6,0,4.8,0.1,6.4,0.3c1.6,0.2,2.9,0.5,3.7,1     c0.9,0.5,1.4,1.1,1.7,1.9c0.3,0.8,0.4,1.8,0.4,3v0.4c0,1.2-0.1,2.2-0.4,3c-0.3,0.8-0.9,1.4-1.7,1.9c-0.9,0.5-2,0.8-3.6,1.1     c-1.5,0.2-3.6,0.3-6.1,0.3L863,549.8L863,549.8z"></path>
		</g>
	</g>
	<g id="Sancorp_Icon">
		<g>
			<g>
				<g>
					<linearGradient id="SVGID_1_" gradientUnits="userSpaceOnUse" x1="45.4783" y1="456.1784" x2="188.0966" y2="608.7758">
						<stop offset="0" style="stop-color:#718BAB"></stop>
						<stop offset="1" style="stop-color:#153969"></stop>
					</linearGradient>
					<circle class="st2" cx="86.2" cy="499.8" r="10.1"></circle>
				</g>
				<g>
					
						<linearGradient id="SVGID_00000020384065611840827370000011518790695716173226_" gradientUnits="userSpaceOnUse" x1="119.3212" y1="387.1644" x2="261.9395" y2="539.7618">
						<stop offset="0" style="stop-color:#718BAB"></stop>
						<stop offset="1" style="stop-color:#153969"></stop>
					</linearGradient>
					<circle style="fill:url(#SVGID_00000020384065611840827370000011518790695716173226_);" cx="157.7" cy="428.3" r="10.1"></circle>
				</g>
			</g>
			<g>
				<g>
					
						<linearGradient id="SVGID_00000139277185164509611610000017639345384181493133_" gradientUnits="userSpaceOnUse" x1="47.9905" y1="453.8304" x2="190.6088" y2="606.4278">
						<stop offset="0" style="stop-color:#718BAB"></stop>
						<stop offset="1" style="stop-color:#153969"></stop>
					</linearGradient>
					<path style="fill:url(#SVGID_00000139277185164509611610000017639345384181493133_);" d="M165.3,578.9c-4,4-10.4,4-14.3,0       c-4-4-4-10.4,0-14.3s10.4-4,14.3,0c0.4,0.4,0.7,0.8,1,1.2c0,0,0,0,0,0c0.6,0.8,1,1.6,1.3,2.5v0c0,0,0,0,0,0c0,0,0,0,0,0       C169,571.9,168.2,576,165.3,578.9z"></path>
				</g>
				<g>
					
						<linearGradient id="SVGID_00000005989064776923618230000013836356760564422804_" gradientUnits="userSpaceOnUse" x1="121.8327" y1="384.8171" x2="264.451" y2="537.4146">
						<stop offset="0" style="stop-color:#718BAB"></stop>
						<stop offset="1" style="stop-color:#153969"></stop>
					</linearGradient>
					<circle style="fill:url(#SVGID_00000005989064776923618230000013836356760564422804_);" cx="229.7" cy="500.2" r="10.1"></circle>
				</g>
			</g>
		</g>
		<g>
			<g>
			</g>
			<g>
			</g>
			<g>
				<g>
					<g>
						<g>
							
								<linearGradient id="SVGID_00000139987686035338916900000016117626369839110816_" gradientUnits="userSpaceOnUse" x1="112.2728" y1="393.7519" x2="254.8911" y2="546.3493">
								<stop offset="0" style="stop-color:#718BAB"></stop>
								<stop offset="1" style="stop-color:#153969"></stop>
							</linearGradient>
							<path style="fill:url(#SVGID_00000139987686035338916900000016117626369839110816_);" d="M224.9,540.4c-3,3-7.1,4.7-11.4,4.7         c-4.3,0-8.3-1.7-11.4-4.7c-4.1-4.1-5.7-10.2-4.1-15.8c0.6-2.2,0-4.5-1.6-6.1c-1.2-1.2-2.7-1.8-4.4-1.8         c-0.6,0-1.1,0.1-1.7,0.2c-1.4,0.4-2.9,0.6-4.4,0.6c-4.3,0-8.3-1.7-11.4-4.7c-3-3-4.7-7.1-4.7-11.4c0-4.3,1.7-8.3,4.7-11.4         c3-3,7.1-4.7,11.4-4.7c1.4,0,2.8,0.2,4.2,0.5c2.2,0.6,4.6-0.1,6.2-1.8c1.6-1.7,2.1-4.1,1.3-6.3c-0.6-1.7-0.9-3.6-0.9-5.5         c0-4.3,1.7-8.3,4.7-11.4c3-3,7.1-4.7,11.4-4.7c4.3,0,8.3,1.7,11.4,4.7c6.3,6.3,6.3,16.5,0,22.8c-3,3-7.1,4.7-11.4,4.7         c-1.4,0-2.8-0.2-4.2-0.5c-2.2-0.6-4.6,0.1-6.2,1.8c-1.6,1.7-2.1,4.1-1.3,6.3c0.6,1.7,0.9,3.6,0.9,5.5c0,1.5-0.2,3-0.6,4.4         c-0.6,2.2,0,4.5,1.6,6.1c1.2,1.2,2.7,1.8,4.4,1.8c0.6,0,1.1-0.1,1.7-0.2c1.4-0.4,2.9-0.6,4.4-0.6c4.3,0,8.3,1.7,11.4,4.7         C231.2,524,231.2,534.2,224.9,540.4z"></path>
						</g>
					</g>
					<g>
						<g>
							
								<linearGradient id="SVGID_00000067937161273441889250000012967774003945007274_" gradientUnits="userSpaceOnUse" x1="54.7842" y1="447.481" x2="197.4025" y2="600.0784">
								<stop offset="0" style="stop-color:#718BAB"></stop>
								<stop offset="1" style="stop-color:#153969"></stop>
							</linearGradient>
							<path style="fill:url(#SVGID_00000067937161273441889250000012967774003945007274_);" d="M201.4,557.2         c0,4.3-1.7,8.3-4.7,11.4c-3,3-7.1,4.7-11.4,4.7c-4.3,0-8.3-1.7-11.4-4.7c-4.1-4.1-5.7-10.2-4.1-15.8c0.6-2.2,0-4.5-1.6-6.1         c-1.2-1.2-2.7-1.8-4.4-1.8c-0.6,0-1.1,0.1-1.7,0.2c-3.2,0.9-6.7,0.8-9.9-0.3c-2.1-0.8-4.6-0.3-6.3,1.3         c-1.7,1.6-2.4,3.9-1.8,6.2c0.4,1.4,0.6,2.8,0.6,4.2c0,4.3-1.7,8.3-4.7,11.4c-3,3-7.1,4.7-11.4,4.7c-4.3,0-8.3-1.7-11.4-4.7         c-3-3-4.7-7.1-4.7-11.4c0-4.3,1.7-8.3,4.7-11.4c3-3,7.1-4.7,11.4-4.7c1.9,0,3.7,0.3,5.4,0.9c2.1,0.8,4.6,0.3,6.3-1.3         c1.7-1.6,2.4-3.9,1.8-6.2c-0.4-1.4-0.5-2.8-0.5-4.2c0-4.3,1.7-8.3,4.7-11.4c3-3,7.1-4.7,11.4-4.7c4.3,0,8.3,1.7,11.4,4.7         c3,3,4.7,7.1,4.7,11.4c0,1.5-0.2,3-0.6,4.4c-0.6,2.2,0,4.5,1.6,6.1c1.2,1.2,2.7,1.8,4.4,1.8c0.6,0,1.1-0.1,1.7-0.2         c1.4-0.4,2.9-0.6,4.4-0.6c4.3,0,8.3,1.7,11.4,4.7C199.8,548.9,201.4,552.9,201.4,557.2z"></path>
						</g>
						<g>
							
								<linearGradient id="SVGID_00000132810645912992358380000004508807845032772527_" gradientUnits="userSpaceOnUse" x1="55.0608" y1="447.2224" x2="197.6791" y2="599.8199">
								<stop offset="0" style="stop-color:#718BAB"></stop>
								<stop offset="1" style="stop-color:#153969"></stop>
							</linearGradient>
							<path style="fill:url(#SVGID_00000132810645912992358380000004508807845032772527_);" d="M166.4,565.8         c0.4,0.9,0.8,1.7,1.3,2.5C167.4,567.4,166.9,566.5,166.4,565.8z"></path>
						</g>
					</g>
				</g>
				<g>
					<g>
						<g>
							
								<linearGradient id="SVGID_00000166673462089364844940000014882030004025461635_" gradientUnits="userSpaceOnUse" x1="111.6655" y1="394.3194" x2="254.2838" y2="546.9169">
								<stop offset="0" style="stop-color:#718BAB"></stop>
								<stop offset="1" style="stop-color:#153969"></stop>
							</linearGradient>
							<path style="fill:url(#SVGID_00000166673462089364844940000014882030004025461635_);" d="M197.8,455.7c-3,3-7.1,4.7-11.4,4.7         c-1.9,0-3.7-0.3-5.5-0.9c-2.1-0.8-4.6-0.3-6.3,1.3c-1.7,1.6-2.4,3.9-1.8,6.2c1.5,5.6-0.1,11.5-4.1,15.6         c-3,3-7.1,4.7-11.4,4.7c-4.3,0-8.3-1.7-11.4-4.7c-4.1-4.1-5.7-10.2-4.1-15.8c0.6-2.2,0-4.5-1.6-6.1c-1.2-1.2-2.7-1.8-4.4-1.8         c-0.6,0-1.1,0.1-1.7,0.2c-1.4,0.4-2.9,0.6-4.4,0.6c-4.3,0-8.3-1.7-11.4-4.7c-3-3-4.7-7.1-4.7-11.4c0-4.3,1.7-8.3,4.7-11.4         c3-3,7.1-4.7,11.4-4.7c4.3,0,8.3,1.7,11.4,4.7c3,3,4.7,7.1,4.7,11.4c0,1.5-0.2,3-0.6,4.4c-0.6,2.2,0,4.5,1.6,6.1         c1.2,1.2,2.7,1.8,4.4,1.8c0.6,0,1.1-0.1,1.7-0.2c3.2-0.9,6.7-0.8,9.9,0.3c2.1,0.8,4.6,0.3,6.3-1.3c1.7-1.6,2.4-3.9,1.8-6.2         C169.4,443,171,437,175,433c3-3,7.1-4.7,11.4-4.7c4.3,0,8.3,1.7,11.4,4.7C204.1,439.2,204.1,449.5,197.8,455.7z"></path>
						</g>
					</g>
					<g>
						<g>
							
								<linearGradient id="SVGID_00000131345991566241371900000006861101063886419349_" gradientUnits="userSpaceOnUse" x1="54.1749" y1="448.0504" x2="196.7932" y2="600.6479">
								<stop offset="0" style="stop-color:#718BAB"></stop>
								<stop offset="1" style="stop-color:#153969"></stop>
							</linearGradient>
							<path style="fill:url(#SVGID_00000131345991566241371900000006861101063886419349_);" d="M140.5,510.7c-3,3-7.1,4.7-11.4,4.7         c-1.4,0-2.8-0.2-4.2-0.5c-2.2-0.6-4.6,0.1-6.2,1.8c-1.6,1.7-2.1,4.1-1.3,6.3c0.6,1.7,0.9,3.6,0.9,5.5c0,4.3-1.7,8.3-4.7,11.4         c-3,3-7.1,4.7-11.4,4.7c-4.3,0-8.3-1.7-11.4-4.7c-3-3-4.7-7.1-4.7-11.4c0-4.3,1.7-8.3,4.7-11.4c3-3,7.1-4.7,11.4-4.7         c1.4,0,2.8,0.2,4.2,0.5c2.2,0.6,4.6-0.1,6.2-1.8c1.6-1.7,2.1-4.1,1.3-6.3c-1.1-3.1-1.2-6.6-0.3-9.9c0.6-2.2,0-4.5-1.6-6.1         c-1.2-1.2-2.7-1.8-4.4-1.8c-0.6,0-1.1,0.1-1.7,0.2c-1.4,0.4-2.9,0.6-4.4,0.6c-4.3,0-8.3-1.7-11.4-4.7         c-6.3-6.3-6.3-16.5,0-22.8c3-3,7.1-4.7,11.4-4.7c4.3,0,8.3,1.7,11.4,4.7c3,3,4.7,7.1,4.7,11.4c0,1.5-0.2,3-0.6,4.4         c-0.6,2.2,0,4.5,1.6,6.1c1.2,1.2,2.7,1.8,4.4,1.8c0.6,0,1.1-0.1,1.7-0.2c1.4-0.4,2.9-0.6,4.4-0.6c4.3,0,8.3,1.7,11.4,4.7         C146.8,494.2,146.8,504.4,140.5,510.7z"></path>
						</g>
					</g>
				</g>
			</g>
		</g>
	</g>
</g>
<g>
</g>
<g>
</g>
<g>
</g>
<g>
</g>
<g>
</g>
<g>
</g>
</svg>
