<svg xmlns="http://www.w3.org/2000/svg" width="50" height="50" viewBox="0 0 50 50" fill="none"><path d="M22.8542 4.16663H18.6875C8.27085 4.16663 4.10419 8.33329 4.10419 18.75V31.25C4.10419 41.6666 8.27085 45.8333 18.6875 45.8333H31.1875C41.6042 45.8333 45.7709 41.6666 45.7709 31.25V27.0833" stroke="#086AD7" stroke-width="3" stroke-linecap="round" stroke-linejoin="round"></path><path d="M45.5834 7.4166C43.0209 13.8124 36.5834 22.5208 31.2084 26.8333L27.9167 29.4583C27.5 29.7708 27.0834 30.0208 26.6042 30.2083C26.6042 29.8958 26.5834 29.5833 26.5417 29.2499C26.3542 27.8541 25.7292 26.5416 24.6042 25.4374C23.4584 24.2916 22.0834 23.6458 20.6667 23.4583C20.3334 23.4374 20 23.4166 19.6667 23.4374C19.8542 22.9166 20.125 22.4374 20.4792 22.0416L23.1042 18.7499C27.4167 13.3749 36.1459 6.89576 42.5209 4.33326C43.5 3.95826 44.4584 4.24993 45.0625 4.8541C45.6875 5.4791 45.9792 6.43743 45.5834 7.4166Z" stroke="#086AD7" stroke-width="3" stroke-linecap="round" stroke-linejoin="round"></path><path d="M26.625 30.1874C26.625 32.0208 25.9167 33.7708 24.6042 35.1041C23.5834 36.1249 22.2084 36.8333 20.5625 37.0416L16.4584 37.4791C14.2292 37.7291 12.3125 35.8333 12.5625 33.5624L13 29.4583C13.3959 25.8124 16.4375 23.4791 19.6875 23.4166C20.0209 23.3958 20.3542 23.4166 20.6875 23.4374C22.1042 23.6249 23.4792 24.2708 24.625 25.4166C25.75 26.5416 26.375 27.8333 26.5625 29.2291C26.6042 29.5624 26.625 29.8958 26.625 30.1874Z" stroke="#086AD7" stroke-width="3" stroke-linecap="round" stroke-linejoin="round"></path><path d="M32.9583 24.9582C32.9583 20.604 29.4375 17.0624 25.0625 17.0624" stroke="#086AD7" stroke-width="3" stroke-linecap="round" stroke-linejoin="round"></path></svg>