<svg xmlns="http://www.w3.org/2000/svg" width="50" height="50" viewBox="0 0 50 50" fill="none"><path d="M6.25 45.8333H43.75" stroke="#086AD7" stroke-width="3" stroke-linecap="round" stroke-linejoin="round"></path><path d="M11.6666 17.458H8.33333C7.1875 17.458 6.25 18.3955 6.25 19.5413V37.4997C6.25 38.6455 7.1875 39.583 8.33333 39.583H11.6666C12.8124 39.583 13.7499 38.6455 13.7499 37.4997V19.5413C13.7499 18.3955 12.8124 17.458 11.6666 17.458Z" stroke="#086AD7" stroke-width="3" stroke-linecap="round" stroke-linejoin="round"></path><path d="M26.6666 10.8125H23.3333C22.1875 10.8125 21.25 11.75 21.25 12.8958V37.5C21.25 38.6458 22.1875 39.5833 23.3333 39.5833H26.6666C27.8124 39.5833 28.7499 38.6458 28.7499 37.5V12.8958C28.7499 11.75 27.8124 10.8125 26.6666 10.8125Z" stroke="#086AD7" stroke-width="3" stroke-linecap="round" stroke-linejoin="round"></path><path d="M41.6667 4.16675H38.3334C37.1876 4.16675 36.2501 5.10425 36.2501 6.25008V37.5001C36.2501 38.6459 37.1876 39.5834 38.3334 39.5834H41.6667C42.8125 39.5834 43.75 38.6459 43.75 37.5001V6.25008C43.75 5.10425 42.8125 4.16675 41.6667 4.16675Z" stroke="#086AD7" stroke-width="3" stroke-linecap="round" stroke-linejoin="round"></path></svg>