<svg xmlns="http://www.w3.org/2000/svg" width="50" height="50" viewBox="0 0 50 50" fill="none"><path d="M25 45.8334C36.506 45.8334 45.8334 36.506 45.8334 25.0001C45.8334 13.4941 36.506 4.16675 25 4.16675C13.4941 4.16675 4.16669 13.4941 4.16669 25.0001C4.16669 36.506 13.4941 45.8334 25 45.8334Z" stroke="#086AD7" stroke-width="3" stroke-linecap="round" stroke-linejoin="round"></path><path d="M16.6666 6.25H18.7499C14.6874 18.4167 14.6874 31.5833 18.7499 43.75H16.6666" stroke="#086AD7" stroke-width="3" stroke-linecap="round" stroke-linejoin="round"></path><path d="M31.25 6.25C35.3125 18.4167 35.3125 31.5833 31.25 43.75" stroke="#086AD7" stroke-width="3" stroke-linecap="round" stroke-linejoin="round"></path><path d="M6.25 33.3333V31.25C18.4167 35.3125 31.5833 35.3125 43.75 31.25V33.3333" stroke="#086AD7" stroke-width="3" stroke-linecap="round" stroke-linejoin="round"></path><path d="M6.25 18.7502C18.4167 14.6877 31.5833 14.6877 43.75 18.7502" stroke="#086AD7" stroke-width="3" stroke-linecap="round" stroke-linejoin="round"></path></svg>