<svg xmlns="http://www.w3.org/2000/svg" width="50" height="50" viewBox="0 0 50 50" fill="none"><path d="M17.7084 39.5208H16.6667C8.33335 39.5208 4.16669 37.4375 4.16669 27.0208V16.6041C4.16669 8.27079 8.33335 4.10413 16.6667 4.10413H33.3334C41.6667 4.10413 45.8334 8.27079 45.8334 16.6041V27.0208C45.8334 35.3541 41.6667 39.5208 33.3334 39.5208H32.2917C31.6459 39.5208 31.0209 39.8333 30.625 40.3542L27.5 44.5208C26.125 46.3542 23.875 46.3542 22.5 44.5208L19.375 40.3542C19.0417 39.8958 18.2917 39.5208 17.7084 39.5208Z" fill="#086AD7" fill-opacity="0.1" stroke="#086AD7" stroke-width="3" stroke-miterlimit="10" stroke-linecap="round" stroke-linejoin="round"></path><path d="M16.6667 18.1249L12.5 22.2915L16.6667 26.4582" fill="#086AD7" fill-opacity="0.1"></path><path d="M16.6667 18.1249L12.5 22.2915L16.6667 26.4582" stroke="#086AD7" stroke-width="3" stroke-miterlimit="10" stroke-linecap="round" stroke-linejoin="round"></path><path d="M33.3333 18.1249L37.5 22.2915L33.3333 26.4582" fill="#086AD7" fill-opacity="0.1"></path><path d="M33.3333 18.1249L37.5 22.2915L33.3333 26.4582" stroke="#086AD7" stroke-width="3" stroke-miterlimit="10" stroke-linecap="round" stroke-linejoin="round"></path><path d="M27.0834 17.4375L22.9167 27.1459" stroke="#086AD7" stroke-width="3" stroke-miterlimit="10" stroke-linecap="round" stroke-linejoin="round"></path></svg>