<svg xmlns="http://www.w3.org/2000/svg" width="53" height="50" viewBox="0 0 53 50" fill="none"><path d="M27.0067 0.382793L26.3869 0.689307L26.395 0.750016L27.0067 0.382793ZM27.0067 0.382793C26.9366 0.266063 26.8374 0.169441 26.7188 0.102353C26.6001 0.0352641 26.466 0 26.3296 0C26.1932 0 26.0591 0.0352641 25.9404 0.102353C25.8218 0.169441 25.7225 0.266063 25.6525 0.382793H27.0067ZM0.748631 19.2553L0.749644 19.2551L0.748631 19.2553ZM0.748631 19.2553L0.738845 19.2577L0.748631 19.2553ZM34.4463 17.9857L49.218 20.128L38.5305 30.5186L37.7748 31.2533L37.9537 32.292L40.4806 46.9652L27.2581 40.0341L26.3296 39.5474L25.4011 40.0341L12.1786 46.9652L14.7055 32.292L14.8844 31.2533L14.1287 30.5186L3.44122 20.128L18.2128 17.9857L19.2527 17.8348L19.7185 16.893L26.3296 3.52522L32.9407 16.893L33.4065 17.8348L34.4463 17.9857ZM10.5147 49.266V49.266Z" stroke="#333333" stroke-width="4"></path></svg>