<svg xmlns="http://www.w3.org/2000/svg" width="39" height="50" viewBox="0 0 39 50" fill="none"><path d="M30.5979 32.467C30.5581 32.4627 24.8026 32.6326 23.9468 26.4648C24.8977 25.8013 25.7741 24.94 26.5461 23.8949C28.0481 21.8617 29.0159 19.3111 29.3606 16.5522C29.479 16.4451 29.5771 16.3118 29.6431 16.1547C30.2668 14.6688 30.5831 13.0823 30.5831 11.4389C30.5831 5.13153 25.8252 0 19.9766 0C18.447 0 16.9631 0.352343 15.5615 1.04814C15.0268 1.08896 14.5029 1.18301 14.0005 1.32812C11.5984 2.02216 9.64373 3.80312 8.49637 6.34315C7.38251 8.80936 7.16297 11.7126 7.8784 14.5181C8.02957 15.1108 8.22176 15.6932 8.44969 16.2497C8.51141 16.4002 8.6034 16.5286 8.71385 16.6342C9.27225 20.9404 11.3212 24.5083 14.1149 26.4562C13.2565 32.6344 7.50301 32.4629 7.46336 32.4672C3.32451 32.6077 0 36.0161 0 40.1886V48.8742C0 49.496 0.504003 50 1.12578 50H11.0116H27.0494H36.9354C37.5571 50 38.0613 49.496 38.0613 48.8742V40.1886C38.0612 36.0159 34.7369 32.6074 30.5979 32.467ZM14.6256 3.4913C15.0364 3.37255 15.4703 3.30214 15.9152 3.28212C16.0803 3.2747 16.2418 3.23105 16.3882 3.1541C17.5279 2.55527 18.7353 2.25166 19.9767 2.25166C24.5835 2.25166 28.3316 6.37303 28.3316 11.4389C28.3316 11.591 28.3273 11.7423 28.3206 11.8929C27.4271 10.9855 26.1856 10.4216 24.8146 10.4216H17.1417C16.6851 10.4216 16.2518 10.2782 15.8884 10.0069C15.5782 9.77537 15.3383 9.46414 15.1951 9.10692C14.9732 8.55438 14.4261 8.20877 13.8306 8.24618C13.233 8.28426 12.7301 8.6993 12.5791 9.27928C12.1344 10.9879 11.2478 12.5617 10.0314 13.838C8.89959 9.17987 10.9423 4.55546 14.6256 3.4913ZM13.6461 22.9628C12.1811 21.1732 11.2218 18.7565 10.9177 16.1107C12.3383 14.8446 13.4613 13.269 14.1925 11.5214C14.3034 11.6237 14.4199 11.7205 14.5416 11.8114C15.297 12.3752 16.1961 12.6733 17.1418 12.6733H24.8147C25.9003 12.6733 26.8361 13.3245 27.2537 14.2564C27.2536 14.2644 27.2524 14.272 27.2524 14.2801C27.2524 20.6353 23.5649 25.8057 19.0323 25.8057C17.0596 25.8058 15.1467 24.7961 13.6461 22.9628ZM16.2329 27.5618C17.1254 27.8847 18.0641 28.0575 19.0323 28.0575C19.9927 28.0575 20.9311 27.8903 21.8295 27.5677C22.2417 29.7153 23.4357 31.587 25.1036 32.8756L19.192 41.2944C19.1534 41.3493 19.0998 41.3772 19.0326 41.3772C18.9655 41.3772 18.9119 41.3492 18.8734 41.2945L12.9603 32.8738C14.6283 31.5837 15.8219 29.7106 16.2329 27.5618ZM35.8095 47.7482H27.0494H11.0116H2.25156V40.1884C2.25156 37.1687 4.70829 34.7119 7.72801 34.7119C7.76903 34.7119 9.58065 34.6679 11.0121 34.0174L17.0305 42.5883C17.488 43.2399 18.2364 43.6288 19.0325 43.6288C19.0325 43.6288 19.0325 43.6288 19.0326 43.6288C19.8286 43.6288 20.5771 43.2399 21.0345 42.5883L27.0519 34.0188C28.6844 34.712 30.2921 34.712 30.3331 34.712C33.3529 34.712 35.8095 37.1688 35.8095 40.1885V47.7482Z" fill="#333333"></path></svg>