<svg xmlns="http://www.w3.org/2000/svg" width="62" height="50" viewBox="0 0 62 50" fill="none"><path d="M33.3334 37.5C34.1005 37.5 34.7223 36.8782 34.7223 36.1111C34.7223 35.3441 34.1005 34.7223 33.3334 34.7223C32.5664 34.7223 31.9446 35.3441 31.9446 36.1111C31.9446 36.8782 32.5664 37.5 33.3334 37.5Z" fill="#333333"></path><path d="M9.72234 45.8334C10.4894 45.8334 11.1112 45.2115 11.1112 44.4445C11.1112 43.6775 10.4894 43.0557 9.72234 43.0557C8.9553 43.0557 8.3335 43.6775 8.3335 44.4445C8.3335 45.2115 8.9553 45.8334 9.72234 45.8334Z" fill="#333333"></path><path d="M56.9445 0H9.72232C7.36119 0 5.55566 1.80552 5.55566 4.16666V18.0556C5.55566 18.8889 6.11127 19.4444 6.94451 19.4444C7.77774 19.4444 8.33335 18.8888 8.33335 18.0556V4.16678C8.33335 3.33342 8.88896 2.77793 9.7222 2.77793H56.9444C57.7777 2.77793 58.3332 3.33354 58.3332 4.16678V37.5001C58.3332 38.3335 57.7776 38.889 56.9444 38.889H23.6111C22.7778 38.889 22.2223 39.4446 22.2223 40.2778C22.2223 41.1111 22.7779 41.6667 23.6111 41.6667H26.3889V45.8333C26.3889 46.6667 25.8333 47.2222 25.0001 47.2222H23.6113C22.7779 47.2222 22.2224 47.7778 22.2224 48.611C22.2224 49.4443 22.778 49.9999 23.6113 49.9999H43.0557C43.889 49.9999 44.4445 49.4443 44.4445 48.611C44.4445 47.7778 43.8889 47.2222 43.0557 47.2222H41.6668C40.8335 47.2222 40.278 46.6666 40.278 45.8333V41.6667H56.9446C59.3057 41.6667 61.1113 39.8612 61.1113 37.5V4.16678C61.1111 1.80564 59.3056 0 56.9445 0ZM28.8889 47.2223C29.0278 46.8056 29.1666 46.3889 29.1666 45.8334V41.6668H37.4999V45.8334C37.4999 46.3891 37.6389 46.8056 37.7777 47.2223H28.8889Z" fill="#333333"></path><path d="M54.1666 30.5555H23.611C22.7777 30.5555 22.2222 31.1112 22.2222 31.9444C22.2222 32.7776 22.7778 33.3332 23.611 33.3332H54.1666C54.9999 33.3332 55.5554 32.7776 55.5554 31.9444C55.5554 31.1112 54.9999 30.5555 54.1666 30.5555Z" fill="#333333"></path><path d="M15.2778 22.2223H4.16666C1.80552 22.2223 0 24.0279 0 26.3889V45.8334C0 48.1945 1.80552 50 4.16666 50H15.2778C17.6389 50 19.4444 48.1945 19.4444 45.8334V26.3889C19.4444 24.0279 17.6389 22.2223 15.2778 22.2223ZM16.6666 45.8334C16.6666 46.6667 16.111 47.2222 15.2778 47.2222H4.16666C3.3333 47.2222 2.77781 46.6666 2.77781 45.8334V26.3889C2.77781 25.5556 3.33342 25.0001 4.16666 25.0001H15.2778C16.1111 25.0001 16.6666 25.5557 16.6666 26.3889V45.8334Z" fill="#333333"></path></svg>