<svg xmlns="http://www.w3.org/2000/svg" width="51" height="50" viewBox="0 0 51 50" fill="none"><path d="M25.0098 0C22.2649 0 20.0039 2.26098 20.0039 5.00587C20.0039 7.16452 21.4088 9.00311 23.3412 9.69887V13.4011H26.6784V9.69887C28.6108 9.00311 30.0156 7.16452 30.0156 5.00587C30.0156 2.26098 27.7547 0 25.0098 0ZM25.0098 3.33724C25.9511 3.33724 26.6784 4.06443 26.6784 5.00587C26.6784 5.9473 25.9511 6.67449 25.0098 6.67449C24.0685 6.67449 23.3412 5.9473 23.3412 5.00587C23.3412 4.06443 24.0685 3.33724 25.0098 3.33724ZM10.6831 5.69026C9.39849 5.69026 8.11425 6.17984 7.14379 7.15031C5.20284 9.09125 5.20284 12.288 7.14379 14.2289C8.6688 15.7539 10.9635 16.0585 12.821 15.1871L15.4413 17.8073L17.8008 15.4478L15.1806 12.8341C16.0588 10.9745 15.7506 8.67851 14.2224 7.15031C13.2519 6.17984 11.9677 5.69026 10.6831 5.69026ZM39.2191 5.72285C37.9345 5.72285 36.6503 6.21243 35.6798 7.1829C34.1538 8.70894 33.8415 11.002 34.7152 12.8601L32.1014 15.4739L34.461 17.8334L37.0747 15.2197C38.9331 16.0942 41.232 15.788 42.7584 14.2615C44.6994 12.3206 44.6994 9.12384 42.7584 7.1829C41.788 6.21243 40.5037 5.72285 39.2191 5.72285ZM10.6831 9.00795C11.1066 9.00795 11.53 9.17695 11.8629 9.50984C12.5285 10.1753 12.5285 11.2036 11.8629 11.8694C11.1972 12.5348 10.1689 12.5348 9.50332 11.8694C8.8377 11.2036 8.8377 10.1753 9.50332 9.50984C9.83613 9.17695 10.2595 9.00795 10.6831 9.00795ZM39.2191 9.04054C39.6427 9.04054 40.0661 9.20971 40.3989 9.54243C41.0645 10.2082 41.0645 11.2365 40.3989 11.902C39.7333 12.5677 38.705 12.5677 38.0394 11.902C37.3738 11.2365 37.3738 10.2082 38.0394 9.54243C38.3722 9.20971 38.7956 9.04054 39.2191 9.04054ZM25.0359 16.6797C20.4478 16.6797 16.6927 20.4348 16.6927 25.0228C16.6927 29.6105 20.4478 33.3659 25.0359 33.3659C29.6239 33.3659 33.379 29.6105 33.379 25.0228C33.379 20.4348 29.6239 16.6797 25.0359 16.6797ZM45.1115 19.9844C42.9528 19.9844 41.1142 21.3892 40.4185 23.3216H36.7162V26.6588H40.4185C41.1159 28.5882 42.955 29.9961 45.1115 29.9961C47.8564 29.9961 50.1173 27.7351 50.1173 24.9902C50.1173 22.2453 47.8564 19.9844 45.1115 19.9844ZM5.00587 20.0039C2.26097 20.0039 0 22.2649 0 25.0098C0 27.755 2.26097 30.0156 5.00587 30.0156C7.16236 30.0156 9.00147 28.6078 9.69887 26.6784H13.4011V23.3412H9.69887C9.00311 21.4088 7.16453 20.0039 5.00587 20.0039ZM25.0359 20.0169C27.8203 20.0169 30.0417 22.2382 30.0417 25.0228C30.0417 27.8071 27.8203 30.0287 25.0359 30.0287C22.2514 30.0287 20.03 27.8071 20.03 25.0228C20.03 22.2382 22.2514 20.0169 25.0359 20.0169ZM45.1115 23.3216C46.0528 23.3216 46.7801 24.0488 46.7801 24.9902C46.7801 25.9317 46.0528 26.6588 45.1115 26.6588C44.1701 26.6588 43.4428 25.9317 43.4428 24.9902C43.4428 24.0488 44.1701 23.3216 45.1115 23.3216ZM5.00587 23.3412C5.94719 23.3412 6.67449 24.0687 6.67449 25.0098C6.67449 25.9512 5.94719 26.6784 5.00587 26.6784C4.06455 26.6784 3.33724 25.9512 3.33724 25.0098C3.33724 24.0687 4.06455 23.3412 5.00587 23.3412ZM25.805 33.379C25.1689 33.3494 24.5305 33.3604 23.8952 33.405C18.813 33.7621 13.8848 36.4888 10.3442 41.3114L10.0183 41.7547V50H11.6869H40.0534V41.7286L39.7275 41.2854C39.237 40.6189 38.7161 39.9856 38.1632 39.3886C34.6666 35.6126 30.2576 33.5862 25.805 33.379ZM26.7045 36.8205C29.9031 37.2185 33.046 38.7774 35.7124 41.6569C36.0636 42.036 36.3919 42.4531 36.7162 42.8692V46.6628H13.3555V42.9866C16.1525 39.3654 19.7061 37.3135 23.3672 36.8335V41.7221V43.3907H26.7045V41.7221V36.8205Z" fill="#333333"></path></svg>