<svg xmlns="http://www.w3.org/2000/svg" width="50" height="50" viewBox="0 0 50 50" fill="none"><path d="M48.5352 0H42.6758C41.8668 0 41.2109 0.655859 41.2109 1.46484V2.92969H29.1426C28.5379 1.2248 26.9097 0 25 0C23.0903 0 21.4621 1.2248 20.8574 2.92969H8.78906V1.46484C8.78906 0.655859 8.1332 0 7.32422 0H1.46484C0.655859 0 0 0.655859 0 1.46484V7.32422C0 8.1332 0.655859 8.78906 1.46484 8.78906H7.32422C8.1332 8.78906 8.78906 8.1332 8.78906 7.32422V5.83984H14.8806C9.5958 9.18691 6.3833 14.8413 5.99688 20.8439C4.27129 21.4373 3.02734 23.0756 3.02734 25C3.02734 27.4231 4.99873 29.3945 7.42188 29.3945C9.84502 29.3945 11.8164 27.4231 11.8164 25C11.8164 23.1074 10.6138 21.4904 8.93262 20.873C9.45273 13.9739 14.4207 8.03184 21.0641 6.3459C21.7842 7.79238 23.2774 8.78906 25 8.78906C26.7226 8.78906 28.2158 7.79238 28.9359 6.346C35.5794 8.03193 40.5473 13.974 41.0674 20.8731C39.3862 21.4904 38.1836 23.1074 38.1836 25C38.1836 27.4231 40.155 29.3945 42.5781 29.3945C45.0013 29.3945 46.9727 27.4231 46.9727 25C46.9727 23.0756 45.7287 21.4373 44.0031 20.8439C43.6159 14.8293 40.3938 9.1999 35.1194 5.85938H41.2109V7.32422C41.2109 8.1332 41.8668 8.78906 42.6758 8.78906H48.5352C49.3441 8.78906 50 8.1332 50 7.32422V1.46484C50 0.655859 49.3441 0 48.5352 0ZM5.85938 5.85938H2.92969V2.92969H5.85938V5.85938ZM7.42188 26.4648C6.61416 26.4648 5.95703 25.8077 5.95703 25C5.95703 24.1923 6.61416 23.5352 7.42188 23.5352C8.22959 23.5352 8.88672 24.1923 8.88672 25C8.88672 25.8077 8.22959 26.4648 7.42188 26.4648ZM25 5.85938C24.1923 5.85938 23.5352 5.20225 23.5352 4.39453C23.5352 3.58682 24.1923 2.92969 25 2.92969C25.8077 2.92969 26.4648 3.58682 26.4648 4.39453C26.4648 5.20225 25.8077 5.85938 25 5.85938ZM42.5781 23.5352C43.3858 23.5352 44.043 24.1923 44.043 25C44.043 25.8077 43.3858 26.4648 42.5781 26.4648C41.7704 26.4648 41.1133 25.8077 41.1133 25C41.1133 24.1923 41.7704 23.5352 42.5781 23.5352ZM47.0703 5.85938H44.1406V2.92969H47.0703V5.85938Z" fill="#333333"></path><path d="M37.9375 30.0467L26.2187 12.4687C26.2184 12.4681 26.2179 12.4675 26.2175 12.4669C26.2133 12.4606 26.2087 12.4547 26.2044 12.4485C26.1843 12.4193 26.1631 12.3912 26.141 12.3637C25.5237 11.5967 24.3483 11.6485 23.7956 12.4485C23.7913 12.4547 23.7867 12.4606 23.7825 12.4669C23.7821 12.4675 23.7816 12.468 23.7812 12.4687L12.0625 30.0468C11.6751 30.6278 11.7517 31.4014 12.2455 31.8952C15.1681 34.8177 17.0282 38.6381 17.535 42.7254C17.3075 42.9092 17.0879 43.1061 16.8797 43.3192C15.5038 44.7266 14.7461 46.5791 14.7461 48.5351C14.7461 49.3441 15.4019 50 16.2109 50H33.7891C34.598 50 35.2539 49.3441 35.2539 48.5351C35.2539 46.5791 34.4962 44.7266 33.1204 43.3191C32.9121 43.106 32.6926 42.9091 32.465 42.7253C32.9717 38.6378 34.8318 34.8174 37.7544 31.8952C38.2482 31.4014 38.3249 30.6277 37.9375 30.0467ZM25 29.3945C25.8077 29.3945 26.4648 30.0516 26.4648 30.8593C26.4648 31.6671 25.8077 32.3242 25 32.3242C24.1923 32.3242 23.5351 31.6671 23.5351 30.8593C23.5351 30.0516 24.1923 29.3945 25 29.3945ZM17.9256 47.0703C18.535 45.3288 20.1872 44.0429 22.0703 44.0429H27.9297C29.8128 44.0429 31.4649 45.3288 32.0744 47.0703H17.9256ZM29.7114 41.3362C29.1352 41.1891 28.538 41.1132 27.9297 41.1132H22.0703C21.462 41.1132 20.8647 41.1891 20.2886 41.3363C19.603 37.3881 17.8226 33.6975 15.147 30.7016L23.5351 18.1193V26.7169C21.8302 27.3215 20.6055 28.9498 20.6055 30.8594C20.6055 33.2826 22.5768 35.254 25 35.254C27.4231 35.254 29.3945 33.2826 29.3945 30.8594C29.3945 28.9498 28.1698 27.3215 26.4648 26.7169V18.1193L34.8531 30.7016C32.1773 33.6972 30.3969 37.388 29.7114 41.3362Z" fill="#333333"></path></svg>