<svg xmlns="http://www.w3.org/2000/svg" width="47" height="50" viewBox="0 0 47 50" fill="none"><path d="M39.971 23.6522C39.4905 23.6522 39.0297 23.4613 38.69 23.1216C38.3502 22.7818 38.1594 22.321 38.1594 21.8406V16.7246C38.1594 9.47825 31.4637 3.68116 23.2319 3.68116C15 3.68116 8.30434 9.55072 8.30434 16.7246V21.8406C8.30434 22.321 8.11347 22.7818 7.77373 23.1216C7.43399 23.4613 6.97321 23.6522 6.49274 23.6522C6.01228 23.6522 5.5515 23.4613 5.21176 23.1216C4.87202 22.7818 4.68115 22.321 4.68115 21.8406V16.7246C4.68115 7.50724 13.0145 0 23.2319 0C33.4492 0 41.7826 7.50724 41.7826 16.7246V21.8406C41.7845 22.079 41.739 22.3154 41.6486 22.5361C41.5582 22.7568 41.4249 22.9572 41.2563 23.1259C41.0877 23.2945 40.8872 23.4278 40.6665 23.5182C40.4459 23.6085 40.2094 23.6541 39.971 23.6522V23.6522Z" fill="#333333"></path><path d="M35.0724 40.6956C34.592 40.6956 34.1312 40.5047 33.7914 40.165C33.4517 39.8252 33.2608 39.3645 33.2608 38.884V21.6811C33.2759 21.2108 33.4734 20.7647 33.8115 20.4374C34.1496 20.1101 34.6018 19.9272 35.0724 19.9275C41.3188 19.9275 46.4058 24.6086 46.4058 30.3478C46.4058 36.0869 41.3188 40.6956 35.0724 40.6956ZM36.884 23.6811V36.884C38.4701 36.6214 39.9186 35.8241 40.989 34.6246C42.0593 33.425 42.6871 31.8954 42.7681 30.2898C42.6903 28.6816 42.064 27.1486 40.9934 25.9461C39.9227 24.7437 38.4724 23.9443 36.884 23.6811ZM11.3333 40.6956C5.08695 40.6956 0 36.0289 0 30.2898C0 24.5507 5.08695 19.9275 11.3333 19.9275C11.8138 19.9275 12.2746 20.1184 12.6143 20.4581C12.9541 20.7978 13.1449 21.2586 13.1449 21.7391V38.884C13.1449 39.3645 12.9541 39.8252 12.6143 40.165C12.2746 40.5047 11.8138 40.6956 11.3333 40.6956V40.6956ZM9.52173 23.6811C7.93334 23.9443 6.48304 24.7437 5.4124 25.9461C4.34176 27.1486 3.71541 28.6816 3.63768 30.2898C3.71863 31.8954 4.34643 33.425 5.41679 34.6246C6.48715 35.8241 7.93566 36.6214 9.52173 36.884V23.6811Z" fill="#333333"></path><path d="M34.4781 46.5944H28.4781C27.9976 46.5944 27.5368 46.4035 27.1971 46.0638C26.8574 45.7241 26.6665 45.2633 26.6665 44.7828C26.6665 44.3023 26.8574 43.8416 27.1971 43.5018C27.5368 43.1621 27.9976 42.9712 28.4781 42.9712H34.4781C35.416 42.9712 36.3154 42.5987 36.9786 41.9355C37.6418 41.2723 38.0143 40.3729 38.0143 39.435V38.6379C38.0143 38.1574 38.2052 37.6966 38.5449 37.3569C38.8847 37.0172 39.3454 36.8263 39.8259 36.8263C40.3064 36.8263 40.7672 37.0172 41.1069 37.3569C41.4466 37.6966 41.6375 38.1574 41.6375 38.6379V39.435C41.6375 41.3338 40.8832 43.1548 39.5406 44.4975C38.1979 45.8401 36.3769 46.5944 34.4781 46.5944V46.5944Z" fill="#333333"></path><path d="M25.377 50H21.7973C20.4828 50 19.2221 49.4778 18.2926 48.5483C17.363 47.6187 16.8408 46.358 16.8408 45.0435V44.8406C16.8447 43.5285 17.3686 42.2716 18.2977 41.3452C19.2268 40.4188 20.4853 39.8986 21.7973 39.8986H25.377C26.6878 39.8986 27.9448 40.4192 28.8716 41.346C29.7984 42.2729 30.3191 43.5299 30.3191 44.8406V45.0435C30.3191 46.3555 29.7989 47.614 28.8725 48.5432C27.9461 49.4723 26.6891 49.9962 25.377 50ZM21.8263 43.5217C21.4752 43.5217 21.1382 43.6602 20.8886 43.9071C20.639 44.1541 20.4968 44.4895 20.493 44.8406V45.0435C20.493 45.3971 20.6335 45.7362 20.8835 45.9863C21.1336 46.2363 21.4727 46.3768 21.8263 46.3768H25.377C25.7281 46.373 26.0636 46.2308 26.3105 45.9812C26.5574 45.7316 26.6959 45.3946 26.6959 45.0435V44.8406C26.6959 44.4908 26.5569 44.1554 26.3096 43.908C26.0623 43.6607 25.7268 43.5217 25.377 43.5217H21.8263Z" fill="#333333"></path></svg>