<svg xmlns="http://www.w3.org/2000/svg" width="49" height="50" viewBox="0 0 49 50" fill="none"><path d="M45 40.3083V36.6667C45 36.2233 44.825 35.8 44.5117 35.4883L35 25.9767V24.0233L44.5117 14.5117C44.825 14.2 45 13.775 45 13.3333V9.69333C46.9367 9.00167 48.3333 7.17 48.3333 5C48.3333 2.24333 46.09 0 43.3333 0H16.6667C13.91 0 11.6667 2.24333 11.6667 5C11.6667 7.17 13.0633 9.00167 15 9.69167V13.3333C15 13.775 15.175 14.2 15.4883 14.5117L20.4883 19.5117C20.8133 19.8367 21.24 20 21.6667 20C22.0933 20 22.52 19.8367 22.845 19.5117C23.4967 18.86 23.4967 17.8067 22.845 17.155L18.3333 12.6433V10H41.6667V12.6433L32.155 22.155C31.8417 22.4667 31.6667 22.8917 31.6667 23.3333V26.6667C31.6667 27.11 31.8417 27.5333 32.155 27.845L41.6667 37.3567V40H33.3333C32.4133 40 31.6667 40.745 31.6667 41.6667C31.6667 42.5883 32.4133 43.3333 33.3333 43.3333H43.3333C44.2517 43.3333 45 44.08 45 45C45 45.92 44.2517 46.6667 43.3333 46.6667H24.4083C27.8133 43.915 30 39.71 30 35C30 26.7283 23.27 20 15 20C6.73 20 0 26.7283 0 35C0 43.2717 6.73 50 15 50H43.3333C46.09 50 48.3333 47.7567 48.3333 45C48.3333 42.83 46.9367 40.9983 45 40.3083ZM16.6667 6.66667C15.7483 6.66667 15 5.91833 15 5C15 4.08167 15.7483 3.33333 16.6667 3.33333H43.3333C44.2517 3.33333 45 4.08167 45 5C45 5.91833 44.2517 6.66667 43.3333 6.66667H16.6667ZM15 46.6667C8.56667 46.6667 3.33333 41.4317 3.33333 35C3.33333 28.5683 8.56667 23.3333 15 23.3333C21.4333 23.3333 26.6667 28.5683 26.6667 35C26.6667 41.4317 21.4333 46.6667 15 46.6667Z" fill="#333333"></path><path d="M15 30C15.9183 30 16.6667 30.7467 16.6667 31.6667C16.6667 32.5883 17.4133 33.3333 18.3333 33.3333C19.2533 33.3333 20 32.5883 20 31.6667C20 29.4967 18.6033 27.665 16.6667 26.975V26.6667C16.6667 25.7467 15.92 25 15 25C14.08 25 13.3333 25.7467 13.3333 26.6667V26.975C11.3967 27.665 10 29.4967 10 31.6667C10 33.62 11.3967 35.5567 13.2467 36.1717L15.6983 36.99C16.1783 37.15 16.6667 37.8267 16.6667 38.3333C16.6667 39.2533 15.9183 40 15 40C14.0817 40 13.3333 39.2533 13.3333 38.3333C13.3333 37.4117 12.5867 36.6667 11.6667 36.6667C10.7467 36.6667 10 37.4117 10 38.3333C10 40.5033 11.3967 42.335 13.3333 43.025V43.3333C13.3333 44.255 14.08 45 15 45C15.92 45 16.6667 44.255 16.6667 43.3333V43.025C18.6033 42.335 20 40.5017 20 38.3333C20 36.38 18.6033 34.4433 16.7533 33.8283L14.3017 33.01C13.8217 32.85 13.3333 32.1733 13.3333 31.6667C13.3333 30.7467 14.0817 30 15 30Z" fill="#333333"></path></svg>