<svg xmlns="http://www.w3.org/2000/svg" width="35" height="35" viewBox="0 0 35 35" fill="none"><circle cx="17.5" cy="17.5" r="17" stroke="white"></circle><path d="M25.936 13.5164C25.8549 13.3129 25.6996 13.1512 25.5041 13.0666C25.408 13.024 25.3047 13.0013 25.2002 13H21.2014C20.9893 13 20.7859 13.0878 20.6359 13.244C20.4859 13.4002 20.4016 13.612 20.4016 13.8329C20.4016 14.0538 20.4859 14.2657 20.6359 14.4219C20.7859 14.5781 20.9893 14.6659 21.2014 14.6659H23.2728L18.8021 19.3219L16.1708 16.5733C16.0965 16.4952 16.008 16.4332 15.9106 16.391C15.8131 16.3487 15.7086 16.3269 15.603 16.3269C15.4974 16.3269 15.3929 16.3487 15.2954 16.391C15.198 16.4332 15.1095 16.4952 15.0352 16.5733L10.2366 21.5709C10.1616 21.6483 10.1021 21.7404 10.0615 21.8419C10.0209 21.9434 10 22.0523 10 22.1622C10 22.2722 10.0209 22.3811 10.0615 22.4826C10.1021 22.5841 10.1616 22.6762 10.2366 22.7536C10.3109 22.8317 10.3994 22.8937 10.4968 22.9359C10.5943 22.9782 10.6988 23 10.8044 23C10.91 23 11.0145 22.9782 11.112 22.9359C11.2094 22.8937 11.2979 22.8317 11.3722 22.7536L15.603 18.3391L18.2343 21.0878C18.3086 21.1658 18.3971 21.2278 18.4945 21.2701C18.592 21.3124 18.6965 21.3341 18.8021 21.3341C18.9077 21.3341 19.0122 21.3124 19.1097 21.2701C19.2071 21.2278 19.2956 21.1658 19.3699 21.0878L24.4005 15.8403V17.9976C24.4005 18.2185 24.4847 18.4304 24.6347 18.5866C24.7847 18.7428 24.9881 18.8305 25.2002 18.8305C25.4123 18.8305 25.6158 18.7428 25.7658 18.5866C25.9157 18.4304 26 18.2185 26 17.9976V13.8329C25.9987 13.7241 25.977 13.6166 25.936 13.5164Z" fill="white"></path></svg>