<svg xmlns="http://www.w3.org/2000/svg" width="17" height="17" viewBox="0 0 17 17" fill="none"><path d="M13.01 0H3.826C2.81169 0.00132296 1.8393 0.404843 1.12207 1.12207C0.404843 1.8393 0.00132296 2.81169 0 3.826V9.948C0.000751592 10.8301 0.305628 11.6849 0.863227 12.3684C1.42083 13.0519 2.19704 13.5222 3.061 13.7V16.073C3.06083 16.2116 3.09833 16.3477 3.16948 16.4666C3.24063 16.5856 3.34277 16.683 3.46497 16.7484C3.58717 16.8138 3.72485 16.8448 3.8633 16.838C4.00174 16.8313 4.13575 16.787 4.251 16.71L8.651 13.777H13.011C14.0253 13.7757 14.9977 13.3722 15.7149 12.6549C16.4322 11.9377 16.8357 10.9653 16.837 9.951V3.826C16.8357 2.81152 16.432 1.83897 15.7146 1.12172C14.9971 0.404462 14.0245 0.00105838 13.01 0ZM7.993 12.373L4.593 14.641V13.01C4.59274 12.8072 4.51205 12.6128 4.36864 12.4694C4.22524 12.3259 4.03081 12.2453 3.828 12.245C3.218 12.245 2.63299 12.0027 2.20165 11.5713C1.77032 11.14 1.528 10.555 1.528 9.945V3.826C1.528 3.216 1.77032 2.63099 2.20165 2.19965C2.63299 1.76832 3.218 1.526 3.828 1.526H13.01C13.62 1.526 14.205 1.76832 14.6363 2.19965C15.0677 2.63099 15.31 3.216 15.31 3.826V9.948C15.31 10.558 15.0677 11.143 14.6363 11.5743C14.205 12.0057 13.62 12.248 13.01 12.248H8.418C8.26654 12.247 8.11834 12.292 7.993 12.377V12.373Z" fill="#696969"></path><path d="M13.01 4.5918H3.82599C3.62296 4.5918 3.42825 4.67245 3.2847 4.81601C3.14114 4.95957 3.06049 5.15427 3.06049 5.3573C3.06049 5.56032 3.14114 5.75503 3.2847 5.89859C3.42825 6.04215 3.62296 6.1228 3.82599 6.1228H13.009C13.212 6.1228 13.4067 6.04215 13.5503 5.89859C13.6938 5.75503 13.7745 5.56032 13.7745 5.3573C13.7745 5.15427 13.6938 4.95957 13.5503 4.81601C13.4067 4.67245 13.212 4.5918 13.009 4.5918H13.01Z" fill="#696969"></path><path d="M11.48 7.65283H5.35699C5.15397 7.65283 4.95926 7.73348 4.8157 7.87704C4.67214 8.0206 4.59149 8.21531 4.59149 8.41833C4.59149 8.62136 4.67214 8.81606 4.8157 8.95962C4.95926 9.10318 5.15397 9.18383 5.35699 9.18383H11.479C11.682 9.18383 11.8767 9.10318 12.0203 8.95962C12.1638 8.81606 12.2445 8.62136 12.2445 8.41833C12.2445 8.21531 12.1638 8.0206 12.0203 7.87704C11.8767 7.73348 11.682 7.65283 11.479 7.65283H11.48Z" fill="#696969"></path></svg>