<svg xmlns="http://www.w3.org/2000/svg" width="16" height="16" viewBox="0 0 16 16" fill="none"><path d="M1.935 15.482C1.42189 15.4817 0.929865 15.2778 0.567039 14.915C0.204214 14.5521 0.000264969 14.0601 0 13.547V3.871C0 3.61676 0.0500763 3.36501 0.147369 3.13013C0.244662 2.89524 0.387265 2.68182 0.567039 2.50204C0.746814 2.32227 0.960235 2.17966 1.19512 2.08237C1.43001 1.98507 1.68176 1.935 1.936 1.935H2.581C2.581 1.4218 2.78487 0.929632 3.14775 0.56675C3.51063 0.203867 4.0028 0 4.516 0C5.02919 0 5.52137 0.203867 5.88425 0.56675C6.24714 0.929632 6.451 1.4218 6.451 1.935H9.032C9.032 1.4218 9.23586 0.929632 9.59875 0.56675C9.96163 0.203867 10.4538 0 10.967 0C11.4802 0 11.9724 0.203867 12.3353 0.56675C12.6981 0.929632 12.902 1.4218 12.902 1.935H13.548C13.8022 1.935 14.0539 1.98508 14.2887 2.08239C14.5236 2.1797 14.7369 2.32231 14.9166 2.5021C15.0963 2.68189 15.2388 2.89532 15.336 3.1302C15.4332 3.36508 15.4831 3.61681 15.483 3.871V13.547C15.4831 13.8012 15.4332 14.0529 15.336 14.2878C15.2388 14.5227 15.0963 14.7361 14.9166 14.9159C14.7369 15.0957 14.5236 15.2383 14.2887 15.3356C14.0539 15.4329 13.8022 15.483 13.548 15.483L1.935 15.482ZM1.289 13.546C1.289 13.6308 1.30572 13.7147 1.3382 13.7931C1.37067 13.8714 1.41827 13.9425 1.47827 14.0024C1.53827 14.0623 1.60949 14.1098 1.68786 14.1422C1.76623 14.1746 1.85021 14.1911 1.935 14.191H13.547C13.7181 14.191 13.8821 14.1231 14.0031 14.0021C14.124 13.8811 14.192 13.7171 14.192 13.546V7.74001H1.29L1.289 13.546ZM1.289 3.87V6.45H14.189V3.87C14.189 3.69884 14.1211 3.53468 14.0001 3.41356C13.8792 3.29244 13.7152 3.22426 13.544 3.224H12.256C12.0849 3.224 11.9209 3.15604 11.7999 3.03508C11.679 2.91412 11.611 2.75007 11.611 2.579V1.934C11.611 1.76293 11.543 1.59887 11.4221 1.47791C11.3011 1.35695 11.1371 1.289 10.966 1.289C10.7949 1.289 10.6309 1.35695 10.5099 1.47791C10.389 1.59887 10.321 1.76293 10.321 1.934V3.224C10.3209 3.30879 10.3375 3.39276 10.3698 3.47113C10.4022 3.5495 10.4497 3.62073 10.5096 3.68073C10.5695 3.74072 10.6406 3.78832 10.7189 3.8208C10.7973 3.85328 10.8812 3.87 10.966 3.87C11.1371 3.87 11.3011 3.93795 11.4221 4.05891C11.543 4.17988 11.611 4.34393 11.611 4.515C11.611 4.68606 11.543 4.85012 11.4221 4.97108C11.3011 5.09205 11.1371 5.16 10.966 5.16C10.7118 5.16 10.4601 5.10991 10.2253 5.0126C9.99044 4.9153 9.77709 4.77268 9.5974 4.5929C9.4177 4.41311 9.27519 4.19968 9.17801 3.9648C9.08082 3.72992 9.03087 3.47819 9.031 3.224H5.806C5.63493 3.224 5.47088 3.15604 5.34991 3.03508C5.22895 2.91412 5.161 2.75007 5.161 2.579V1.934C5.161 1.76293 5.09305 1.59887 4.97208 1.47791C4.85112 1.35695 4.68706 1.289 4.516 1.289C4.34493 1.289 4.18087 1.35695 4.05991 1.47791C3.93895 1.59887 3.871 1.76293 3.871 1.934V3.224C3.87087 3.30879 3.88745 3.39276 3.91981 3.47113C3.95216 3.5495 3.99966 3.62073 4.05956 3.68073C4.11947 3.74072 4.19062 3.78832 4.26894 3.8208C4.34726 3.85328 4.43121 3.87 4.516 3.87C4.68706 3.87 4.85112 3.93795 4.97208 4.05891C5.09305 4.17988 5.161 4.34393 5.161 4.515C5.161 4.68606 5.09305 4.85012 4.97208 4.97108C4.85112 5.09205 4.68706 5.16 4.516 5.16C4.26181 5.16 4.01011 5.10991 3.77528 5.0126C3.54045 4.9153 3.32709 4.77268 3.14739 4.5929C2.9677 4.41311 2.82519 4.19968 2.728 3.9648C2.63082 3.72992 2.58087 3.47819 2.581 3.224H1.936C1.85108 3.224 1.76699 3.24074 1.68855 3.27327C1.61011 3.3058 1.53885 3.35347 1.47885 3.41356C1.41885 3.47365 1.3713 3.54498 1.33889 3.62347C1.30648 3.70197 1.28987 3.78608 1.29 3.871L1.289 3.87ZM10.965 12.256C10.965 12.1284 11.0028 12.0037 11.0737 11.8977C11.1446 11.7916 11.2453 11.7089 11.3632 11.6601C11.481 11.6113 11.6107 11.5985 11.7358 11.6234C11.8609 11.6483 11.9759 11.7097 12.0661 11.7999C12.1563 11.8901 12.2177 12.0051 12.2426 12.1302C12.2675 12.2553 12.2547 12.385 12.2059 12.5028C12.1571 12.6207 12.0744 12.7214 11.9683 12.7923C11.8623 12.8632 11.7376 12.901 11.61 12.901C11.4393 12.9007 11.2756 12.8328 11.1549 12.7121C11.0342 12.5914 10.9663 12.4277 10.966 12.257L10.965 12.256ZM7.094 12.256C7.094 12.1285 7.13181 12.0038 7.20264 11.8978C7.27347 11.7917 7.37414 11.709 7.49194 11.6602C7.60974 11.6113 7.73937 11.5985 7.86446 11.6233C7.98955 11.6481 8.10449 11.7095 8.19473 11.7996C8.28498 11.8897 8.34648 12.0045 8.37148 12.1296C8.39648 12.2546 8.38385 12.3843 8.33519 12.5021C8.28652 12.62 8.20401 12.7208 8.09807 12.7918C7.99213 12.8628 7.86752 12.9008 7.74 12.901C7.56997 12.8997 7.40735 12.8313 7.2875 12.7107C7.16764 12.5901 7.10026 12.427 7.1 12.257L7.094 12.256ZM3.224 12.256C3.224 12.1284 3.26183 12.0037 3.3327 11.8977C3.40358 11.7916 3.50431 11.7089 3.62217 11.6601C3.74003 11.6113 3.86972 11.5985 3.99483 11.6234C4.11995 11.6483 4.23488 11.7097 4.32508 11.7999C4.41529 11.8901 4.47672 12.0051 4.50161 12.1302C4.5265 12.2553 4.51372 12.385 4.4649 12.5028C4.41609 12.6207 4.33341 12.7214 4.22734 12.7923C4.12127 12.8632 3.99657 12.901 3.869 12.901C3.69829 12.9007 3.53463 12.8328 3.41392 12.7121C3.2932 12.5914 3.22526 12.4277 3.225 12.257L3.224 12.256ZM10.965 9.67599C10.965 9.54843 11.0028 9.42373 11.0737 9.31766C11.1446 9.21159 11.2453 9.12891 11.3632 9.08009C11.481 9.03127 11.6107 9.01851 11.7358 9.0434C11.8609 9.06828 11.9759 9.1297 12.0661 9.21991C12.1563 9.31011 12.2177 9.42505 12.2426 9.55017C12.2675 9.67529 12.2547 9.80498 12.2059 9.92284C12.1571 10.0407 12.0744 10.1414 11.9683 10.2123C11.8623 10.2832 11.7376 10.321 11.61 10.321C11.4392 10.3205 11.2755 10.2523 11.1549 10.1314C11.0342 10.0106 10.9663 9.84681 10.966 9.67599H10.965ZM7.094 9.67599C7.094 9.54847 7.13181 9.42381 7.20264 9.31776C7.27347 9.21172 7.37414 9.12905 7.49194 9.0802C7.60974 9.03135 7.73937 9.01851 7.86446 9.04332C7.98955 9.06813 8.10449 9.12945 8.19473 9.21956C8.28498 9.30966 8.34648 9.42451 8.37148 9.54956C8.39648 9.67461 8.38385 9.80426 8.33519 9.92213C8.28652 10.04 8.20401 10.1408 8.09807 10.2118C7.99213 10.2828 7.86752 10.3208 7.74 10.321C7.56988 10.3194 7.40726 10.2508 7.28744 10.13C7.16761 10.0093 7.10025 9.84612 7.1 9.67599H7.094ZM3.224 9.67599C3.224 9.54843 3.26183 9.42373 3.3327 9.31766C3.40358 9.21159 3.50431 9.12891 3.62217 9.08009C3.74003 9.03127 3.86972 9.01851 3.99483 9.0434C4.11995 9.06828 4.23488 9.1297 4.32508 9.21991C4.41529 9.31011 4.47672 9.42505 4.50161 9.55017C4.5265 9.67529 4.51372 9.80498 4.4649 9.92284C4.41609 10.0407 4.33341 10.1414 4.22734 10.2123C4.12127 10.2832 3.99657 10.321 3.869 10.321C3.69811 10.3207 3.5343 10.2527 3.41356 10.1317C3.29281 10.0108 3.225 9.84689 3.225 9.67599H3.224Z" fill="#696969"></path></svg>