<svg xmlns="http://www.w3.org/2000/svg" width="40" height="40" viewBox="0 0 40 40"><g><g><g><path fill="#0d152e" d="M20.857 10.736a.927.927 0 1 0-1.311 1.311l7.024 7.024H7.907a.93.93 0 0 0 0 1.861H26.56l-7.024 7.024a.926.926 0 0 0 .661 1.582.953.953 0 0 0 .66-.27l8.606-8.605a.922.922 0 0 0 .27-.661.959.959 0 0 0-.27-.66z"/></g><g><path fill="#0d152e" d="M20.001 38.143c-10 0-18.14-8.14-18.14-18.141C1.86 10 10 1.86 20 1.86 30.002 1.86 38.143 10 38.143 20c0 10.002-8.14 18.142-18.142 18.142zm0-38.143a19.999 19.999 0 0 0-14.14 34.142c7.81 7.81 20.472 7.81 28.281 0 7.81-7.809 7.81-20.47 0-28.28A19.874 19.874 0 0 0 20.002 0z"/></g></g></g></svg>