<svg xmlns="http://www.w3.org/2000/svg" width="21" height="14" viewBox="0 0 21 14" fill="none"><path d="M19.9258 1.61707C19.8243 1.37272 19.6301 1.17855 19.3858 1.07707C19.2656 1.02583 19.1365 0.99865 19.0058 0.99707H14.0058C13.7406 0.99707 13.4862 1.10243 13.2987 1.28996C13.1112 1.4775 13.0058 1.73185 13.0058 1.99707C13.0058 2.26229 13.1112 2.51664 13.2987 2.70418C13.4862 2.89171 13.7406 2.99707 14.0058 2.99707H16.5958L11.0058 8.58707L7.7158 5.28707C7.62284 5.19334 7.51223 5.11895 7.39038 5.06818C7.26852 5.01741 7.13781 4.99127 7.0058 4.99127C6.87379 4.99127 6.74308 5.01741 6.62122 5.06818C6.49936 5.11895 6.38876 5.19334 6.2958 5.28707L0.295798 11.2871C0.20207 11.38 0.127676 11.4906 0.0769069 11.6125C0.0261382 11.7344 0 11.8651 0 11.9971C0 12.1291 0.0261382 12.2598 0.0769069 12.3816C0.127676 12.5035 0.20207 12.6141 0.295798 12.7071C0.388761 12.8008 0.499363 12.8752 0.621222 12.926C0.743081 12.9767 0.873786 13.0029 1.0058 13.0029C1.13781 13.0029 1.26852 12.9767 1.39037 12.926C1.51223 12.8752 1.62284 12.8008 1.7158 12.7071L7.0058 7.40707L10.2958 10.7071C10.3888 10.8008 10.4994 10.8752 10.6212 10.926C10.7431 10.9767 10.8738 11.0029 11.0058 11.0029C11.1378 11.0029 11.2685 10.9767 11.3904 10.926C11.5122 10.8752 11.6228 10.8008 11.7158 10.7071L18.0058 4.40707V6.99707C18.0058 7.26229 18.1112 7.51664 18.2987 7.70418C18.4862 7.89171 18.7406 7.99707 19.0058 7.99707C19.271 7.99707 19.5254 7.89171 19.7129 7.70418C19.9004 7.51664 20.0058 7.26229 20.0058 6.99707V1.99707C20.0042 1.86639 19.977 1.73729 19.9258 1.61707Z" fill="#0E1871"></path></svg>