<svg xmlns="http://www.w3.org/2000/svg" width="21" height="14" viewBox="0 0 21 14" fill="none"><path d="M19.9375 1.6171C19.836 1.37275 19.6419 1.17858 19.3975 1.0771C19.2773 1.02586 19.1482 0.998681 19.0175 0.997101H14.0175C13.7523 0.997101 13.4979 1.10246 13.3104 1.28999C13.1229 1.47753 13.0175 1.73188 13.0175 1.9971C13.0175 2.26232 13.1229 2.51667 13.3104 2.70421C13.4979 2.89174 13.7523 2.9971 14.0175 2.9971H16.6075L11.0175 8.5871L7.72752 5.2871C7.63455 5.19337 7.52395 5.11898 7.40209 5.06821C7.28023 5.01744 7.14953 4.9913 7.01752 4.9913C6.88551 4.9913 6.7548 5.01744 6.63294 5.06821C6.51108 5.11898 6.40048 5.19337 6.30752 5.2871L0.307517 11.2871C0.213789 11.3801 0.139394 11.4907 0.0886257 11.6125C0.037857 11.7344 0.0117188 11.8651 0.0117188 11.9971C0.0117188 12.1291 0.037857 12.2598 0.0886257 12.3817C0.139394 12.5035 0.213789 12.6141 0.307517 12.7071C0.40048 12.8008 0.511081 12.8752 0.632941 12.926C0.7548 12.9768 0.885505 13.0029 1.01752 13.0029C1.14953 13.0029 1.28023 12.9768 1.40209 12.926C1.52395 12.8752 1.63455 12.8008 1.72752 12.7071L7.01752 7.4071L10.3075 10.7071C10.4005 10.8008 10.5111 10.8752 10.6329 10.926C10.7548 10.9768 10.8855 11.0029 11.0175 11.0029C11.1495 11.0029 11.2802 10.9768 11.4021 10.926C11.524 10.8752 11.6346 10.8008 11.7275 10.7071L18.0175 4.4071V6.9971C18.0175 7.26232 18.1229 7.51667 18.3104 7.70421C18.4979 7.89174 18.7523 7.9971 19.0175 7.9971C19.2827 7.9971 19.5371 7.89174 19.7246 7.70421C19.9122 7.51667 20.0175 7.26232 20.0175 6.9971V1.9971C20.0159 1.86642 19.9888 1.73732 19.9375 1.6171Z" fill="white"></path></svg>