<svg xmlns="http://www.w3.org/2000/svg" width="1920" height="900" viewBox="0 0 1920 900" fill="none"><style>    @keyframes pulse {        0% {          -webkit-transform: translateX(0px);          transform: translateX(0px);        }        70% {          -webkit-transform: translateX(15px);          transform: translateX(15px);        }        100% {          -webkit-transform: translateX(0px);          transform: translateX(0px);        }    }     #path1,#path2,{        animation: pulse 5s ease-in-out infinite;      -webkit-animation: pulse 5s ease-in-out infinite;      -webkit-transform-origin: center; -ms-transform-origin: center; transform-origin: center; transform-box: fill-box;    }    #path1 {      animation-delay: 1s;    }    #path2 {      animation-delay: 2.5s;    }    @keyframes add {        0% {          -webkit-transform: scale(1);          transform: scale(1);        }        50% {          -webkit-transform: scale(2);          transform: scale(2);        }        100% {          -webkit-transform: scale(1);          transform: scale(1);        }      }     #add-1,#add-2,#add-3,#add-4,#add-5{        animation: add 5s ease-in-out infinite;      -webkit-animation: add 5s ease-in-out infinite;      -webkit-transform-origin: center; -ms-transform-origin: center; transform-origin: center; transform-box: fill-box;    }    #add-1 {      animation-delay: 1s;    }    #add-3,#add-4 {      animation-delay: 1.5s;    }    #add-2 {      animation-delay: 1.5s;    }    #add-5 {      animation-delay: 1.8s;    }</style><mask id="mask0_944_2913" style="mask-type:alpha" maskUnits="userSpaceOnUse" x="0" y="0" width="1920" height="900"><rect width="1920" height="900" fill="#F2F2F2"></rect></mask><g mask="url(#mask0_944_2913)"><rect width="1920" height="900" fill="url(#paint0_linear_944_2913)"></rect><g opacity="0.2"><path opacity="0.33" d="M1939.92 184.897C1939.92 184.897 1745.26 89.8042 1741.05 531.548C1738.1 841.498 1436.83 697.94 1292.13 778.457C1147.43 858.981 1185.34 1099.93 1185.34 1099.93L2046.17 985.723L1939.92 184.897Z" fill="url(#paint1_linear_944_2913)"></path><path d="M1677.67 195.423C1679.61 192.686 1692.23 173.865 1706.5 176.2C1712.77 177.224 1718.99 182.263 1722.43 186.821C1729.05 195.569 1733.62 205.325 1740.94 213.727C1753.83 228.524 1748.7 249.838 1729.77 256.126C1712.72 261.789 1679.39 256.242 1670.59 239.432C1660.35 219.866 1675.02 199.163 1677.67 195.423Z" fill="url(#paint2_linear_944_2913)"></path></g><g style="mix-blend-mode:multiply"><path opacity="0.04" d="M53.2471 537.908L33.4206 482.029L-24.8897 471.259L-63.3688 516.369L-43.5432 572.253L14.7671 583.023L53.2471 537.908Z" stroke="#FBFBFB" stroke-width="0.42" stroke-miterlimit="10"></path><path opacity="0.07" d="M53.1562 537.686L33.3259 481.802L-24.9797 471.033L-63.4644 516.146L-43.6341 572.031L14.6715 582.8L53.1562 537.686Z" stroke="#F7F7F8" stroke-width="0.42" stroke-miterlimit="10"></path><path opacity="0.11" d="M53.0654 537.464L33.2351 481.58L-25.0752 470.81L-63.5552 515.924L-43.7288 571.803L14.5816 582.573L53.0654 537.464Z" stroke="#F3F4F4" stroke-width="0.42" stroke-miterlimit="10"></path><path opacity="0.14" d="M52.9712 537.237L33.1448 481.358L-25.1656 470.588L-63.6447 515.698L-43.8191 571.582L14.4912 582.351L52.9712 537.237Z" stroke="#EFF0F0" stroke-width="0.42" stroke-miterlimit="10"></path><path opacity="0.18" d="M52.8795 537.015L33.0539 481.131L-25.2564 470.361L-63.7364 515.476L-43.9108 571.36L14.3995 582.129L52.8795 537.015Z" stroke="#ECECEC" stroke-width="0.42" stroke-miterlimit="10"></path><path opacity="0.21" d="M52.789 536.793L32.9635 480.909L-25.3469 470.139L-63.8316 515.253L-44.0004 571.133L14.3099 581.903L52.789 536.793Z" stroke="#E8E8E9" stroke-width="0.42" stroke-miterlimit="10"></path><path opacity="0.25" d="M52.6991 536.566L32.8679 480.687L-25.4377 469.918L-63.9215 515.027L-44.0912 570.911L14.2144 581.68L52.6991 536.566Z" stroke="#E4E4E5" stroke-width="0.42" stroke-miterlimit="10"></path><path opacity="0.29" d="M52.6032 536.344L32.7776 480.46L-25.5327 469.69L-64.0128 514.805L-44.1872 570.688L14.1232 581.458L52.6032 536.344Z" stroke="#E0E0E1" stroke-width="0.42" stroke-miterlimit="10"></path><path opacity="0.32" d="M52.5123 536.122L32.6868 480.238L-25.6236 469.468L-64.1036 514.583L-44.2771 570.462L14.0332 581.232L52.5123 536.122Z" stroke="#DCDDDE" stroke-width="0.42" stroke-miterlimit="10"></path><path opacity="0.36" d="M52.4224 535.895L32.5959 480.016L-25.7144 469.246L-64.1935 514.356L-44.3679 570.24L13.9424 581.01L52.4224 535.895Z" stroke="#D8D9DA" stroke-width="0.42" stroke-miterlimit="10"></path><path opacity="0.39" d="M52.332 535.673L32.5017 479.789L-25.8039 469.02L-64.2886 514.133L-44.4583 570.018L13.8473 580.787L52.332 535.673Z" stroke="#D4D5D6" stroke-width="0.42" stroke-miterlimit="10"></path><path opacity="0.43" d="M52.2407 535.451L32.4104 479.567L-25.8952 468.798L-64.3799 513.911L-44.5487 569.791L13.7569 580.56L52.2407 535.451Z" stroke="#D0D1D2" stroke-width="0.42" stroke-miterlimit="10"></path><path opacity="0.46" d="M52.1455 535.224L32.3191 479.345L-25.9912 468.575L-64.4704 513.685L-44.6448 569.568L13.6655 580.338L52.1455 535.224Z" stroke="#CCCDCF" stroke-width="0.42" stroke-miterlimit="10"></path><path opacity="0.5" d="M52.0558 535.002L32.2302 479.118L-26.0801 468.348L-64.5601 513.463L-44.7345 569.347L13.5758 580.117L52.0558 535.002Z" stroke="#C8CACB" stroke-width="0.42" stroke-miterlimit="10"></path><path opacity="0.54" d="M51.9645 534.78L32.1389 478.896L-26.1714 468.126L-64.6514 513.241L-44.825 569.12L13.4854 579.89L51.9645 534.78Z" stroke="#C5C6C7" stroke-width="0.42" stroke-miterlimit="10"></path><path opacity="0.57" d="M51.8744 534.553L32.0432 478.674L-26.2624 467.905L-64.7463 513.014L-44.9159 568.898L13.3897 579.667L51.8744 534.553Z" stroke="#C1C2C4" stroke-width="0.42" stroke-miterlimit="10"></path><path opacity="0.61" d="M51.7832 534.331L31.9529 478.447L-26.3574 467.677L-64.8375 512.792L-45.0119 568.675L13.2985 579.445L51.7832 534.331Z" stroke="#BDBEC0" stroke-width="0.42" stroke-miterlimit="10"></path><path opacity="0.64" d="M51.6881 534.109L31.8625 478.225L-26.4478 467.455L-64.9278 512.57L-45.1013 568.449L13.209 579.219L51.6881 534.109Z" stroke="#B9BABC" stroke-width="0.42" stroke-miterlimit="10"></path><path opacity="0.68" d="M51.5982 533.882L31.7717 478.003L-26.5386 467.233L-65.0177 512.343L-45.1921 568.227L13.1182 578.997L51.5982 533.882Z" stroke="#B5B6B8" stroke-width="0.42" stroke-miterlimit="10"></path><path opacity="0.71" d="M51.5068 533.66L31.6812 477.777L-26.6291 467.007L-65.1138 512.12L-45.2835 568.005L13.0268 578.775L51.5068 533.66Z" stroke="#B1B3B5" stroke-width="0.42" stroke-miterlimit="10"></path><path opacity="0.75" d="M51.416 533.438L31.5857 477.554L-26.7199 466.785L-65.2046 511.898L-45.3735 567.778L12.9321 578.547L51.416 533.438Z" stroke="#ADAFB1" stroke-width="0.42" stroke-miterlimit="10"></path><path opacity="0.79" d="M51.3208 533.211L31.4944 477.332L-26.816 466.562L-65.2951 511.672L-45.4695 567.555L12.8408 578.325L51.3208 533.211Z" stroke="#A9ABAD" stroke-width="0.42" stroke-miterlimit="10"></path><path opacity="0.82" d="M51.2306 532.989L31.405 477.105L-26.9053 466.335L-65.3853 511.45L-45.5597 567.334L12.7506 578.104L51.2306 532.989Z" stroke="#A5A7AA" stroke-width="0.42" stroke-miterlimit="10"></path><path opacity="0.86" d="M51.1393 532.767L31.3137 476.883L-26.9966 466.113L-65.4766 511.228L-45.6502 567.107L12.6602 577.877L51.1393 532.767Z" stroke="#A2A3A6" stroke-width="0.42" stroke-miterlimit="10"></path><path opacity="0.89" d="M51.0492 532.54L31.218 476.661L-27.0876 465.892L-65.5715 511L-45.7411 566.885L12.5645 577.654L51.0492 532.54Z" stroke="#9E9FA2" stroke-width="0.42" stroke-miterlimit="10"></path><path opacity="0.93" d="M50.958 532.318L31.1277 476.434L-27.1779 465.665L-65.6627 510.779L-45.8323 566.663L12.4733 577.432L50.958 532.318Z" stroke="#9A9C9E" stroke-width="0.42" stroke-miterlimit="10"></path><path opacity="0.96" d="M50.8634 532.096L31.0378 476.212L-27.2725 465.442L-65.7525 510.557L-45.926 566.436L12.3843 577.206L50.8634 532.096Z" stroke="#96989B" stroke-width="0.42" stroke-miterlimit="10"></path><path d="M30.9465 475.99L-27.3638 465.22L-65.8429 510.33L-46.0173 566.214L12.293 576.984L50.773 531.869L30.9465 475.99Z" stroke="#929497" stroke-width="0.42" stroke-miterlimit="10"></path></g><path d="M30.9465 475.99L-27.3638 465.22L-65.8429 510.33L-46.0173 566.214L12.293 576.984L50.773 531.869L30.9465 475.99Z" fill="url(#paint3_linear_944_2913)"></path><path d="M201.917 994.057L201.192 993.435L299.965 877.649L249.164 734.471L99.7729 706.879L1.0033 822.67L0.27736 822.052L99.4025 705.843L249.88 733.636L249.969 733.892L301.046 877.849L300.871 878.056L201.917 994.057Z" fill="#2A3A8C"></path><path d="M196.38 979.8L61.1943 954.831L61.1155 954.597L15.1433 825.042L15.3053 824.853L104.519 720.263L239.705 745.231L239.548 746.077L104.854 721.199L16.1209 825.223L61.8417 954.076L196.536 978.954L196.38 979.8Z" fill="#2A3A8C"></path><g style="mix-blend-mode:multiply"><path opacity="0.02" d="M301.904 1015.4L267.811 919.312L167.55 900.794L101.381 978.365L135.474 1074.45L235.736 1092.97L301.904 1015.4Z" fill="white" stroke="#929497" stroke-width="0.01" stroke-miterlimit="10"></path><path opacity="0.05" d="M301.814 1015.18L267.72 919.095L167.458 900.577L101.291 978.143L135.384 1074.23L235.646 1092.75L301.814 1015.18Z" fill="white" stroke="#929497" stroke-width="0.03" stroke-miterlimit="10"></path><path opacity="0.07" d="M301.723 1014.96L267.629 918.873L167.368 900.355L101.2 977.926L135.294 1074.01L235.555 1092.53L301.723 1014.96Z" fill="white" stroke="#929497" stroke-width="0.04" stroke-miterlimit="10"></path><path opacity="0.1" d="M301.631 1014.74L267.538 918.651L167.277 900.133L101.108 977.704L135.202 1073.79L235.463 1092.31L301.631 1014.74Z" fill="white" stroke="#929497" stroke-width="0.06" stroke-miterlimit="10"></path><path opacity="0.12" d="M301.54 1014.52L267.446 918.434L167.185 899.916L101.017 977.482L135.111 1073.57L235.372 1092.09L301.54 1014.52Z" fill="white" stroke="#929497" stroke-width="0.07" stroke-miterlimit="10"></path><path opacity="0.15" d="M301.449 1014.3L267.356 918.212L167.095 899.694L100.926 977.265L135.019 1073.35L235.281 1091.87L301.449 1014.3Z" fill="white" stroke="#929497" stroke-width="0.08" stroke-miterlimit="10"></path><path opacity="0.17" d="M301.358 1014.08L267.265 917.99L167.003 899.472L100.835 977.043L134.928 1073.13L235.19 1091.65L301.358 1014.08Z" fill="white" stroke="#929497" stroke-width="0.1" stroke-miterlimit="10"></path><path opacity="0.2" d="M301.266 1013.86L267.172 917.773L166.911 899.255L100.743 976.826L134.837 1072.91L235.098 1091.43L301.266 1013.86Z" fill="white" stroke="#929497" stroke-width="0.11" stroke-miterlimit="10"></path><path opacity="0.22" d="M301.176 1013.64L267.083 917.551L166.821 899.033L100.653 976.604L134.746 1072.69L235.007 1091.21L301.176 1013.64Z" fill="white" stroke="#929497" stroke-width="0.12" stroke-miterlimit="10"></path><path opacity="0.24" d="M301.084 1013.42L266.991 917.329L166.73 898.811L100.562 976.382L134.655 1072.47L234.916 1090.99L301.084 1013.42Z" fill="white" stroke="#929497" stroke-width="0.14" stroke-miterlimit="10"></path><path opacity="0.27" d="M300.993 1013.2L266.9 917.112L166.638 898.594L100.47 976.165L134.564 1072.25L234.825 1090.77L300.993 1013.2Z" fill="white" stroke="#929497" stroke-width="0.15" stroke-miterlimit="10"></path><path opacity="0.29" d="M300.902 1012.98L266.809 916.89L166.547 898.372L100.379 975.943L134.472 1072.03L234.734 1090.55L300.902 1012.98Z" fill="white" stroke="#929497" stroke-width="0.17" stroke-miterlimit="10"></path><path opacity="0.32" d="M300.811 1012.76L266.717 916.673L166.455 898.155L100.283 975.72L134.381 1071.81L234.642 1090.33L300.811 1012.76Z" fill="white" stroke="#929497" stroke-width="0.18" stroke-miterlimit="10"></path><path opacity="0.34" d="M300.72 1012.54L266.626 916.451L166.36 897.932L100.192 975.503L134.286 1071.59L234.552 1090.11L300.72 1012.54Z" fill="white" stroke="#929497" stroke-width="0.19" stroke-miterlimit="10"></path><path opacity="0.37" d="M300.623 1012.32L266.53 916.228L166.269 897.71L100.101 975.281L134.194 1071.37L234.455 1089.89L300.623 1012.32Z" fill="white" stroke="#929497" stroke-width="0.21" stroke-miterlimit="10"></path><path opacity="0.39" d="M300.532 1012.1L266.438 916.011L166.177 897.493L100.009 975.059L134.102 1071.15L234.364 1089.67L300.532 1012.1Z" fill="white" stroke="#929497" stroke-width="0.22" stroke-miterlimit="10"></path><path opacity="0.41" d="M300.441 1011.88L266.348 915.789L166.086 897.271L99.918 974.842L134.011 1070.93L234.273 1089.45L300.441 1011.88Z" fill="white" stroke="#929497" stroke-width="0.24" stroke-miterlimit="10"></path><path opacity="0.44" d="M300.35 1011.66L266.257 915.567L165.995 897.049L99.8272 974.62L133.92 1070.71L234.182 1089.23L300.35 1011.66Z" fill="white" stroke="#929497" stroke-width="0.25" stroke-miterlimit="10"></path><path opacity="0.46" d="M300.259 1011.43L266.165 915.35L165.904 896.832L99.7362 974.398L133.829 1070.49L234.091 1089.01L300.259 1011.43Z" fill="white" stroke="#929497" stroke-width="0.26" stroke-miterlimit="10"></path><path opacity="0.49" d="M300.168 1011.22L266.075 915.128L165.813 896.61L99.645 974.181L133.738 1070.27L234 1088.79L300.168 1011.22Z" fill="white" stroke="#929497" stroke-width="0.28" stroke-miterlimit="10"></path><path opacity="0.51" d="M300.077 1011L265.983 914.906L165.722 896.388L99.5537 973.959L133.647 1070.05L233.908 1088.57L300.077 1011Z" fill="white" stroke="#929497" stroke-width="0.29" stroke-miterlimit="10"></path><path opacity="0.54" d="M299.985 1010.78L265.892 914.689L165.63 896.171L99.4619 973.742L133.556 1069.83L233.817 1088.35L299.985 1010.78Z" fill="white" stroke="#929497" stroke-width="0.31" stroke-miterlimit="10"></path><path opacity="0.56" d="M299.894 1010.56L265.8 914.467L165.539 895.949L99.3706 973.52L133.464 1069.61L233.725 1088.13L299.894 1010.56Z" fill="white" stroke="#929497" stroke-width="0.32" stroke-miterlimit="10"></path><path opacity="0.59" d="M299.804 1010.33L265.711 914.246L165.449 895.727L99.2808 973.298L133.374 1069.39L233.635 1087.91L299.804 1010.33Z" fill="white" stroke="#929497" stroke-width="0.33" stroke-miterlimit="10"></path><path opacity="0.61" d="M299.711 1010.12L265.618 914.028L165.357 895.51L99.1885 973.081L133.282 1069.17L233.544 1087.68L299.711 1010.12Z" fill="white" stroke="#929497" stroke-width="0.35" stroke-miterlimit="10"></path><path opacity="0.63" d="M299.62 1009.9L265.527 913.806L165.266 895.288L99.0972 972.859L133.19 1068.95L233.452 1087.47L299.62 1009.9Z" fill="white" stroke="#929497" stroke-width="0.36" stroke-miterlimit="10"></path><path opacity="0.66" d="M299.53 1009.67L265.436 913.589L165.174 895.071L99.0067 972.637L133.1 1068.73L233.361 1087.25L299.53 1009.67Z" fill="white" stroke="#929497" stroke-width="0.37" stroke-miterlimit="10"></path><path opacity="0.68" d="M299.438 1009.46L265.345 913.367L165.083 894.849L98.915 972.42L133.009 1068.5L233.271 1087.02L299.438 1009.46Z" fill="white" stroke="#929497" stroke-width="0.39" stroke-miterlimit="10"></path><path opacity="0.71" d="M299.347 1009.23L265.254 913.145L164.988 894.626L98.8193 972.197L132.912 1068.29L233.179 1086.81L299.347 1009.23Z" fill="white" stroke="#929497" stroke-width="0.4" stroke-miterlimit="10"></path><path opacity="0.73" d="M299.251 1009.01L265.157 912.927L164.896 894.409L98.7284 971.975L132.822 1068.06L233.083 1086.58L299.251 1009.01Z" fill="white" stroke="#929497" stroke-width="0.42" stroke-miterlimit="10"></path><path opacity="0.76" d="M299.159 1008.79L265.066 912.705L164.805 894.187L98.6362 971.758L132.729 1067.85L232.991 1086.37L299.159 1008.79Z" fill="white" stroke="#929497" stroke-width="0.43" stroke-miterlimit="10"></path><path opacity="0.78" d="M299.069 1008.57L264.976 912.484L164.715 893.965L98.5464 971.536L132.64 1067.63L232.901 1086.14L299.069 1008.57Z" fill="white" stroke="#929497" stroke-width="0.44" stroke-miterlimit="10"></path><path opacity="0.8" d="M298.978 1008.35L264.884 912.266L164.622 893.748L98.455 971.314L132.548 1067.4L232.81 1085.92L298.978 1008.35Z" fill="white" stroke="#929497" stroke-width="0.46" stroke-miterlimit="10"></path><path opacity="0.83" d="M298.886 1008.13L264.793 912.044L164.531 893.526L98.3628 971.097L132.456 1067.19L232.717 1085.7L298.886 1008.13Z" fill="white" stroke="#929497" stroke-width="0.47" stroke-miterlimit="10"></path><path opacity="0.85" d="M298.796 1007.91L264.703 911.823L164.441 893.304L98.273 970.875L132.366 1066.96L232.628 1085.48L298.796 1007.91Z" fill="white" stroke="#929497" stroke-width="0.49" stroke-miterlimit="10"></path><path opacity="0.88" d="M298.704 1007.69L264.61 911.605L164.349 893.087L98.1807 970.658L132.275 1066.74L232.536 1085.26L298.704 1007.69Z" fill="white" stroke="#929497" stroke-width="0.5" stroke-miterlimit="10"></path><path opacity="0.9" d="M298.612 1007.47L264.519 911.383L164.258 892.865L98.0894 970.436L132.183 1066.53L232.444 1085.04L298.612 1007.47Z" fill="white" stroke="#929497" stroke-width="0.51" stroke-miterlimit="10"></path><path opacity="0.93" d="M298.521 1007.25L264.427 911.166L164.166 892.648L97.9984 970.214L132.092 1066.3L232.353 1084.82L298.521 1007.25Z" fill="white" stroke="#929497" stroke-width="0.53" stroke-miterlimit="10"></path><path opacity="0.95" d="M298.43 1007.03L264.337 910.944L164.076 892.426L97.9072 969.997L132.001 1066.08L232.263 1084.6L298.43 1007.03Z" fill="white" stroke="#929497" stroke-width="0.54" stroke-miterlimit="10"></path><path opacity="0.98" d="M298.339 1006.81L264.246 910.722L163.985 892.204L97.8164 969.775L131.91 1065.86L232.171 1084.38L298.339 1006.81Z" fill="white" stroke="#929497" stroke-width="0.56" stroke-miterlimit="10"></path><path d="M264.154 910.505L163.892 891.987L97.725 969.553L131.818 1065.64L232.08 1084.16L298.248 1006.59L264.154 910.505Z" stroke="#929497" stroke-width="0.57" stroke-miterlimit="10"></path></g><path d="M264.154 910.505L163.892 891.987L97.725 969.553L131.818 1065.64L232.08 1084.16L298.248 1006.59L264.154 910.505Z" fill="url(#paint4_linear_944_2913)"></path><g style="mix-blend-mode:multiply" opacity="0.8"><path opacity="0.02" d="M34.0367 913.548L-87.2169 891.153L-167.236 984.963L-126.007 1101.17L-4.75327 1123.56L75.2661 1029.75L34.0367 913.548Z" stroke="#FDFDFD" stroke-width="0.5" stroke-miterlimit="10"></path><path opacity="0.04" d="M33.9766 913.317L-87.2722 890.923L-167.296 984.732L-126.062 1100.94L-4.81337 1123.33L75.2107 1029.52L33.9766 913.317Z" stroke="#FBFBFB" stroke-width="0.5" stroke-miterlimit="10"></path><path opacity="0.06" d="M33.9219 913.087L-87.3317 890.692L-167.351 984.502L-126.121 1100.7L-4.86717 1123.1L75.1513 1029.29L33.9219 913.087Z" stroke="#F9F9F9" stroke-width="0.5" stroke-miterlimit="10"></path><path opacity="0.08" d="M33.8614 912.857L-87.3922 890.461L-167.412 984.271L-126.181 1100.47L-4.92769 1122.87L75.0908 1029.06L33.8614 912.857Z" stroke="#F6F7F7" stroke-width="0.5" stroke-miterlimit="10"></path><path opacity="0.1" d="M33.8023 912.626L-87.4465 890.231L-167.47 984.036L-126.236 1100.24L-4.9868 1122.64L75.0326 1028.83L33.8023 912.626Z" stroke="#F4F5F5" stroke-width="0.5" stroke-miterlimit="10"></path><path opacity="0.12" d="M33.7434 912.39L-87.5055 889.996L-167.525 983.806L-126.295 1100.01L-5.04658 1122.41L74.9775 1028.6L33.7434 912.39Z" stroke="#F2F2F3" stroke-width="0.5" stroke-miterlimit="10"></path><path opacity="0.14" d="M33.6875 912.16L-87.566 889.765L-167.585 983.575L-126.356 1099.78L-5.10239 1122.18L74.917 1028.37L33.6875 912.16Z" stroke="#F0F0F1" stroke-width="0.5" stroke-miterlimit="10"></path><path opacity="0.16" d="M33.6275 911.929L-87.6261 889.534L-167.645 983.344L-126.416 1099.55L-5.16248 1121.94L74.8569 1028.13L33.6275 911.929Z" stroke="#EEEEEF" stroke-width="0.5" stroke-miterlimit="10"></path><path opacity="0.18" d="M33.5674 911.699L-87.6814 889.304L-167.706 983.113L-126.471 1099.32L-5.22253 1121.71L74.8016 1027.9L33.5674 911.699Z" stroke="#ECECED" stroke-width="0.5" stroke-miterlimit="10"></path><path opacity="0.2" d="M33.5122 911.469L-87.7413 889.073L-167.761 982.883L-126.531 1099.09L-5.27771 1121.48L74.7417 1027.67L33.5122 911.469Z" stroke="#EAEAEB" stroke-width="0.5" stroke-miterlimit="10"></path><path opacity="0.22" d="M33.4522 911.238L-87.8014 888.842L-167.821 982.652L-126.591 1098.86L-5.33775 1121.25L74.6816 1027.44L33.4522 911.238Z" stroke="#E7E8E9" stroke-width="0.5" stroke-miterlimit="10"></path><path opacity="0.24" d="M33.3936 911.007L-87.8552 888.612L-167.879 982.422L-126.644 1098.62L-5.39549 1121.02L74.6277 1027.21L33.3936 911.007Z" stroke="#E5E6E7" stroke-width="0.5" stroke-miterlimit="10"></path><path opacity="0.25" d="M33.3379 910.777L-87.9156 888.381L-167.934 982.187L-126.705 1098.39L-5.45115 1120.79L74.5682 1026.98L33.3379 910.777Z" stroke="#E3E4E4" stroke-width="0.5" stroke-miterlimit="10"></path><path opacity="0.27" d="M33.2784 910.541L-87.9752 888.146L-167.995 981.956L-126.765 1098.16L-5.51158 1120.56L74.5078 1026.75L33.2784 910.541Z" stroke="#E1E2E2" stroke-width="0.5" stroke-miterlimit="10"></path><path opacity="0.29" d="M33.2183 910.311L-88.0305 887.916L-168.055 981.725L-126.82 1097.93L-5.57167 1120.33L74.4524 1026.52L33.2183 910.311Z" stroke="#DFE0E0" stroke-width="0.5" stroke-miterlimit="10"></path><path opacity="0.31" d="M33.1631 910.081L-88.0904 887.685L-168.11 981.495L-126.88 1097.7L-5.62682 1120.1L74.3926 1026.29L33.1631 910.081Z" stroke="#DDDDDE" stroke-width="0.5" stroke-miterlimit="10"></path><path opacity="0.33" d="M33.1031 909.85L-88.1505 887.454L-168.17 981.264L-126.94 1097.47L-5.68686 1119.87L74.3325 1026.05L33.1031 909.85Z" stroke="#DBDBDC" stroke-width="0.5" stroke-miterlimit="10"></path><path opacity="0.35" d="M33.043 909.619L-88.2058 887.224L-168.23 981.034L-126.996 1097.24L-5.74696 1119.63L74.2772 1025.82L33.043 909.619Z" stroke="#D9D9DA" stroke-width="0.5" stroke-miterlimit="10"></path><path opacity="0.37" d="M32.9883 909.389L-88.2652 886.993L-168.285 980.804L-127.055 1097.01L-5.80162 1119.4L74.2178 1025.59L32.9883 909.389Z" stroke="#D6D7D8" stroke-width="0.5" stroke-miterlimit="10"></path><path opacity="0.39" d="M32.9283 909.158L-88.3253 886.763L-168.345 980.573L-127.114 1096.77L-5.86081 1119.17L74.1577 1025.36L32.9283 909.158Z" stroke="#D4D5D6" stroke-width="0.5" stroke-miterlimit="10"></path><path opacity="0.41" d="M32.8682 908.927L-88.3806 886.533L-168.404 980.337L-127.17 1096.54L-5.92088 1118.94L74.1032 1025.13L32.8682 908.927Z" stroke="#D2D3D4" stroke-width="0.5" stroke-miterlimit="10"></path><path opacity="0.43" d="M32.814 908.693L-88.4396 886.297L-168.459 980.107L-127.229 1096.31L-5.97594 1118.71L74.0434 1024.9L32.814 908.693Z" stroke="#D0D1D2" stroke-width="0.5" stroke-miterlimit="10"></path><path opacity="0.45" d="M32.7539 908.462L-88.4996 886.066L-168.519 979.876L-127.29 1096.08L-6.03602 1118.48L73.9834 1024.67L32.7539 908.462Z" stroke="#CECFD0" stroke-width="0.5" stroke-miterlimit="10"></path><path opacity="0.47" d="M32.6939 908.231L-88.555 885.836L-168.579 979.646L-127.345 1095.85L-6.09606 1118.25L73.9233 1024.44L32.6939 908.231Z" stroke="#CCCDCE" stroke-width="0.5" stroke-miterlimit="10"></path><path opacity="0.49" d="M32.634 908L-88.6148 885.605L-168.634 979.416L-127.405 1095.62L-6.15597 1118.02L73.8681 1024.21L32.634 908Z" stroke="#CACBCC" stroke-width="0.5" stroke-miterlimit="10"></path><path opacity="0.51" d="M32.5791 907.77L-88.6744 885.375L-168.694 979.185L-127.464 1095.39L-6.2108 1117.79L73.8086 1023.98L32.5791 907.77Z" stroke="#C7C8CA" stroke-width="0.5" stroke-miterlimit="10"></path><path opacity="0.53" d="M32.5196 907.539L-88.734 885.144L-168.753 978.954L-127.524 1095.16L-6.27037 1117.55L73.749 1023.74L32.5196 907.539Z" stroke="#C5C6C8" stroke-width="0.5" stroke-miterlimit="10"></path><path opacity="0.55" d="M32.4595 907.309L-88.7893 884.914L-168.813 978.723L-127.578 1094.92L-6.32958 1117.32L73.6937 1023.51L32.4595 907.309Z" stroke="#C3C4C6" stroke-width="0.5" stroke-miterlimit="10"></path><path opacity="0.57" d="M32.4038 907.079L-88.8497 884.683L-168.868 978.489L-127.639 1094.69L-6.38522 1117.09L73.6342 1023.28L32.4038 907.079Z" stroke="#C1C2C4" stroke-width="0.5" stroke-miterlimit="10"></path><path opacity="0.59" d="M32.3448 906.843L-88.9088 884.447L-168.928 978.258L-127.699 1094.46L-6.44516 1116.86L73.5742 1023.05L32.3448 906.843Z" stroke="#BFC0C2" stroke-width="0.5" stroke-miterlimit="10"></path><path opacity="0.61" d="M32.2852 906.612L-88.9636 884.217L-168.988 978.027L-127.754 1094.23L-6.50477 1116.63L73.5193 1022.82L32.2852 906.612Z" stroke="#BDBEC0" stroke-width="0.5" stroke-miterlimit="10"></path><path opacity="0.63" d="M32.23 906.382L-89.0235 883.987L-169.043 977.797L-127.813 1094L-6.55992 1116.4L73.4595 1022.59L32.23 906.382Z" stroke="#BBBCBE" stroke-width="0.5" stroke-miterlimit="10"></path><path opacity="0.65" d="M32.1705 906.151L-89.0831 883.756L-169.102 977.566L-127.873 1093.77L-6.61949 1116.17L73.3999 1022.36L32.1705 906.151Z" stroke="#B8BABC" stroke-width="0.5" stroke-miterlimit="10"></path><path opacity="0.67" d="M32.1104 905.921L-89.1384 883.526L-169.163 977.335L-127.928 1093.54L-6.67956 1115.94L73.3445 1022.13L32.1104 905.921Z" stroke="#B6B8BA" stroke-width="0.5" stroke-miterlimit="10"></path><path opacity="0.69" d="M32.0547 905.691L-89.1988 883.295L-169.218 977.105L-127.989 1093.31L-6.73522 1115.71L73.2842 1021.9L32.0547 905.691Z" stroke="#B4B6B8" stroke-width="0.5" stroke-miterlimit="10"></path><path opacity="0.71" d="M31.9947 905.46L-89.2589 883.064L-169.278 976.874L-128.048 1093.07L-6.7944 1115.47L73.2241 1021.66L31.9947 905.46Z" stroke="#B2B3B6" stroke-width="0.5" stroke-miterlimit="10"></path><path opacity="0.73" d="M31.9351 905.229L-89.3137 882.834L-169.337 976.639L-128.103 1092.84L-6.85398 1115.24L73.1701 1021.43L31.9351 905.229Z" stroke="#B0B1B4" stroke-width="0.5" stroke-miterlimit="10"></path><path opacity="0.75" d="M31.8804 904.994L-89.3731 882.598L-169.393 976.409L-128.163 1092.61L-6.90955 1115.01L73.1098 1021.2L31.8804 904.994Z" stroke="#AEAFB2" stroke-width="0.5" stroke-miterlimit="10"></path><path opacity="0.76" d="M31.8213 904.763L-89.4322 882.368L-169.452 976.178L-128.222 1092.38L-6.96861 1114.78L73.0508 1020.97L31.8213 904.763Z" stroke="#ACADAF" stroke-width="0.5" stroke-miterlimit="10"></path><path opacity="0.78" d="M31.7613 904.533L-89.4876 882.138L-169.512 975.947L-128.278 1092.15L-7.02868 1114.55L72.9954 1020.74L31.7613 904.533Z" stroke="#AAABAD" stroke-width="0.5" stroke-miterlimit="10"></path><path opacity="0.8" d="M31.7056 904.303L-89.548 881.907L-169.567 975.717L-128.338 1091.92L-7.08435 1114.32L72.935 1020.51L31.7056 904.303Z" stroke="#A7A9AB" stroke-width="0.5" stroke-miterlimit="10"></path><path opacity="0.82" d="M31.6455 904.072L-89.608 881.676L-169.627 975.486L-128.398 1091.69L-7.1444 1114.09L72.875 1020.28L31.6455 904.072Z" stroke="#A5A7A9" stroke-width="0.5" stroke-miterlimit="10"></path><path opacity="0.84" d="M31.586 903.841L-89.6629 881.446L-169.687 975.256L-128.453 1091.46L-7.20398 1113.86L72.8154 1020.05L31.586 903.841Z" stroke="#A3A5A7" stroke-width="0.5" stroke-miterlimit="10"></path><path opacity="0.86" d="M31.5261 903.61L-89.7227 881.215L-169.742 975.026L-128.512 1091.23L-7.26301 1113.62L72.7602 1019.82L31.5261 903.61Z" stroke="#A1A3A5" stroke-width="0.5" stroke-miterlimit="10"></path><path opacity="0.88" d="M31.4712 903.38L-89.7823 880.985L-169.801 974.79L-128.571 1091L-7.31784 1113.39L72.7015 1019.58L31.4712 903.38Z" stroke="#9FA1A3" stroke-width="0.5" stroke-miterlimit="10"></path><path opacity="0.9" d="M31.4117 903.144L-89.8419 880.749L-169.861 974.559L-128.632 1090.76L-7.37828 1113.16L72.6411 1019.35L31.4117 903.144Z" stroke="#9D9EA1" stroke-width="0.5" stroke-miterlimit="10"></path><path opacity="0.92" d="M31.3521 902.914L-89.8967 880.519L-169.921 974.328L-128.687 1090.53L-7.43786 1112.93L72.5862 1019.12L31.3521 902.914Z" stroke="#9B9C9F" stroke-width="0.5" stroke-miterlimit="10"></path><path opacity="0.94" d="M31.2964 902.684L-89.9571 880.288L-169.977 974.098L-128.747 1090.3L-7.49352 1112.7L72.5259 1018.89L31.2964 902.684Z" stroke="#989A9D" stroke-width="0.5" stroke-miterlimit="10"></path><path opacity="0.96" d="M31.2369 902.453L-90.0167 880.057L-170.036 973.868L-128.807 1090.07L-7.55309 1112.47L72.4663 1018.66L31.2369 902.453Z" stroke="#96989B" stroke-width="0.5" stroke-miterlimit="10"></path><path opacity="0.98" d="M31.1768 902.222L-90.072 879.827L-170.096 973.637L-128.862 1089.84L-7.61316 1112.24L72.4109 1018.43L31.1768 902.222Z" stroke="#949699" stroke-width="0.5" stroke-miterlimit="10"></path><path d="M31.1211 901.992L-90.1324 879.596L-170.152 973.407L-128.922 1089.61L-7.66882 1112.01L72.3506 1018.2L31.1211 901.992Z" stroke="#929497" stroke-width="0.5" stroke-miterlimit="10"></path></g><path d="M31.1211 901.992L-90.1324 879.596L-170.152 973.407L-128.922 1089.61L-7.66882 1112.01L72.3506 1018.2L31.1211 901.992Z" fill="url(#paint5_linear_944_2913)"></path><path d="M12.0167 924.386L-80.2871 907.338L-141.206 978.753L-109.817 1067.22L-17.5132 1084.27L43.406 1012.85L12.0167 924.386Z" fill="url(#paint6_linear_944_2913)"></path><path d="M-2.20447 1126.79L-139.307 1101.47L-185.926 970.078L-95.4476 864.007L41.6504 889.33L88.2696 1020.72L-2.20919 1126.79L-2.20447 1126.79ZM-138.653 1100.71L-2.54249 1125.85L87.2873 1020.54L41.0013 890.094L-95.1096 864.954L-184.939 970.26L-138.653 1100.71V1100.71Z" fill="#2A3A8C"></path><g style="mix-blend-mode:multiply" opacity="0.8"><path opacity="0.08" d="M308.089 933.769L225.429 918.502L197.323 839.283L251.872 775.331L334.533 790.598L362.639 869.817L308.089 933.769ZM340.592 783.493L248.751 766.53L188.137 837.587L219.369 925.607L311.21 942.57L371.824 871.514L340.592 783.493Z" fill="#F7F7F7"></path><path opacity="0.15" d="M307.937 933.326L225.277 918.059L197.171 838.84L251.721 774.888L334.381 790.155L362.487 869.374L307.937 933.326ZM340.44 783.05L248.599 766.087L187.985 837.143L219.218 925.164L311.059 942.127L371.672 871.07L340.44 783.05Z" fill="#EEEFEF"></path><path opacity="0.23" d="M307.784 932.883L225.124 917.615L197.018 838.397L251.567 774.444L334.228 789.712L362.333 868.93L307.784 932.883ZM340.287 782.607L248.446 765.643L187.832 836.7L219.064 924.721L310.905 941.684L371.519 870.627L340.287 782.607Z" fill="#E6E6E7"></path><path opacity="0.31" d="M307.631 932.439L224.971 917.172L196.865 837.953L251.414 774.001L334.075 789.268L362.181 868.487L307.631 932.439ZM340.134 782.163L248.293 765.2L187.679 836.257L218.911 924.277L310.752 941.24L371.366 870.184L340.134 782.163Z" fill="#DDDEDF"></path><path opacity="0.38" d="M307.483 931.997L224.823 916.73L196.717 837.511L251.267 773.558L333.927 788.826L362.033 868.045L307.483 931.997ZM339.987 781.721L248.146 764.758L187.532 835.814L218.764 923.835L310.605 940.798L371.219 869.741L339.987 781.721Z" fill="#D5D6D7"></path><path opacity="0.46" d="M307.331 931.554L224.67 916.286L196.565 837.068L251.114 773.115L333.774 788.383L361.88 867.601L307.331 931.554ZM339.834 781.278L247.993 764.314L187.379 835.371L218.611 923.392L310.452 940.355L371.066 869.298L339.834 781.278Z" fill="#CDCECF"></path><path opacity="0.54" d="M307.178 931.111L224.518 915.843L196.412 836.624L250.962 772.672L333.622 787.939L361.728 867.158L307.178 931.111ZM339.681 780.834L247.84 763.871L187.227 834.928L218.459 922.948L310.3 939.911L370.913 868.855L339.681 780.834Z" fill="#C4C5C7"></path><path opacity="0.62" d="M307.026 930.667L224.366 915.4L196.26 836.181L250.81 772.229L333.47 787.496L361.576 866.715L307.026 930.667ZM339.529 780.391L247.688 763.428L187.074 834.484L218.306 922.505L310.147 939.468L370.761 868.411L339.529 780.391Z" fill="#BCBDBF"></path><path opacity="0.69" d="M306.877 930.23L224.217 914.962L196.111 835.743L250.661 771.791L333.321 787.058L361.427 866.277L306.877 930.23ZM339.381 779.953L247.54 762.99L186.926 834.047L218.158 922.067L309.999 939.03L370.613 867.974L339.381 779.953Z" fill="#B4B5B7"></path><path opacity="0.77" d="M306.725 929.786L224.064 914.519L195.959 835.3L250.508 771.348L333.168 786.615L361.274 865.834L306.725 929.786ZM339.228 779.51L247.387 762.547L186.773 833.603L218.005 921.624L309.846 938.587L370.46 867.53L339.228 779.51Z" fill="#ABADAF"></path><path opacity="0.85" d="M306.573 929.343L223.913 914.076L195.807 834.857L250.356 770.904L333.017 786.172L361.122 865.391L306.573 929.343ZM339.076 779.067L247.235 762.104L186.621 833.16L217.853 921.181L309.694 938.144L370.308 867.087L339.076 779.067Z" fill="#A3A4A7"></path><path opacity="0.92" d="M306.419 928.9L223.759 913.632L195.653 834.413L250.203 770.461L332.863 785.728L360.969 864.947L306.419 928.9ZM338.923 778.623L247.082 761.66L186.468 832.717L217.7 920.737L309.541 937.7L370.155 866.644L338.923 778.623Z" fill="#9A9C9F"></path><path d="M306.272 928.457L223.611 913.19L195.505 833.971L250.055 770.019L332.715 785.286L360.821 864.505L306.272 928.457ZM338.775 778.181L246.934 761.218L186.32 832.274L217.552 920.295L309.393 937.258L370.007 866.201L338.775 778.181Z" fill="#929497"></path></g><path d="M338.775 778.181L246.934 761.218L186.32 832.274L217.552 920.295L309.393 937.258L370.007 866.201L338.775 778.181V778.181ZM306.272 928.457L223.611 913.19L195.505 833.971L250.055 770.019L332.715 785.286L360.821 864.505L306.272 928.457Z" fill="url(#paint7_linear_944_2913)"></path><g style="mix-blend-mode:multiply" opacity="0.8"><path opacity="0.03" d="M102.17 1014.16L-7.93792 993.82L-45.3814 888.292L27.2879 803.101L137.396 823.438L174.84 928.967L102.17 1014.16ZM145.468 813.975L23.1239 791.378L-57.6178 886.032L-16.0149 1003.28L106.33 1025.88L187.071 931.226L145.468 813.975V813.975Z" fill="#929497"></path><path opacity="0.06" d="M102.085 1013.93L-8.02319 993.594L-45.4667 888.066L27.2026 802.876L137.311 823.213L174.754 928.741L102.085 1013.93ZM145.383 813.749L23.0433 791.153L-57.6983 885.807L-16.0955 1003.06L106.249 1025.65L186.991 931.001L145.388 813.75L145.383 813.749Z" fill="#929497"></path><path opacity="0.09" d="M102 1013.71L-8.10816 993.369L-45.5517 887.84L27.1177 802.65L137.226 822.987L174.669 928.515L102 1013.71ZM145.298 813.524L22.9584 790.927L-57.7833 885.581L-16.1805 1002.83L106.164 1025.43L186.906 930.775L145.303 813.524L145.298 813.524Z" fill="#929497"></path><path opacity="0.11" d="M101.919 1013.48L-8.18938 993.143L-45.6329 887.615L27.0365 802.425L137.145 822.762L174.588 928.29L101.919 1013.48ZM145.217 813.299L22.8724 790.701L-57.8692 885.355L-16.2664 1002.61L106.078 1025.2L186.82 930.549L145.217 813.299V813.299Z" fill="#929497"></path><path opacity="0.14" d="M101.834 1013.25L-8.27435 992.918L-45.7178 887.39L26.9515 802.199L137.06 822.536L174.503 928.065L101.834 1013.25ZM145.132 813.073L22.7875 790.476L-57.9542 885.13L-16.3514 1002.38L105.993 1024.98L186.735 930.324L145.132 813.073V813.073Z" fill="#929497"></path><path opacity="0.17" d="M101.748 1013.03L-8.3606 992.697L-45.8041 887.168L26.8652 801.978L136.973 822.315L174.417 927.843L101.748 1013.03ZM145.046 812.852L22.7059 790.256L-58.0357 884.909L-16.4329 1002.16L105.912 1024.76L186.653 930.103L145.05 812.853L145.046 812.852Z" fill="#929497"></path><path opacity="0.2" d="M101.667 1012.81L-8.44083 992.472L-45.8844 886.944L26.785 801.753L136.893 822.09L174.337 927.619L101.667 1012.81ZM144.965 812.627L22.621 790.03L-58.1207 884.684L-16.5179 1001.93L105.827 1024.53L186.568 929.878L144.965 812.627V812.627Z" fill="#929497"></path><path opacity="0.23" d="M101.581 1012.58L-8.52679 992.246L-45.9703 886.718L26.6991 801.527L136.807 821.864L174.251 927.393L101.581 1012.58ZM144.879 812.401L22.535 789.804L-58.2066 884.458L-16.6038 1001.71L105.741 1024.31L186.482 929.652L144.879 812.401V812.401Z" fill="#929497"></path><path opacity="0.26" d="M101.497 1012.36L-8.61158 992.02L-46.0551 886.492L26.6142 801.302L136.722 821.639L174.166 927.167L101.497 1012.36ZM144.795 812.176L22.455 789.579L-58.2867 884.233L-16.6839 1001.48L105.661 1024.08L186.402 929.427L144.799 812.176L144.795 812.176Z" fill="#929497"></path><path opacity="0.29" d="M101.411 1012.13L-8.69704 991.795L-46.1405 886.266L26.5288 801.076L136.637 821.413L174.08 926.941L101.411 1012.13ZM144.709 811.95L22.3695 789.354L-58.3722 884.007L-16.7693 1001.26L105.575 1023.86L186.317 929.201L144.714 811.951L144.709 811.95Z" fill="#929497"></path><path opacity="0.31" d="M101.33 1011.91L-8.77824 991.57L-46.2218 886.041L26.4476 800.851L136.556 821.188L173.999 926.716L101.33 1011.91ZM144.628 811.725L22.2836 789.128L-58.4581 883.781L-16.8553 1001.03L105.489 1023.63L186.231 928.976L144.628 811.725V811.725Z" fill="#929497"></path><path opacity="0.34" d="M101.245 1011.68L-8.86271 991.344L-46.3062 885.816L26.3631 800.625L136.471 820.962L173.915 926.491L101.245 1011.68ZM144.544 811.499L22.1991 788.902L-58.5426 883.556L-16.9397 1000.81L105.405 1023.4L186.146 928.75L144.544 811.499V811.499Z" fill="#929497"></path><path opacity="0.37" d="M101.16 1011.46L-8.94849 991.123L-46.392 885.595L26.2773 800.404L136.385 820.741L173.829 926.27L101.16 1011.46ZM144.458 811.278L22.1181 788.682L-58.6236 883.336L-17.0208 1000.59L105.324 1023.18L186.065 928.53L144.463 811.279L144.458 811.278Z" fill="#929497"></path><path opacity="0.4" d="M101.079 1011.24L-9.02922 990.898L-46.4727 885.37L26.1966 800.179L136.305 820.517L173.748 926.045L101.079 1011.24ZM144.377 811.053L22.0326 788.456L-58.7091 883.11L-17.1063 1000.36L105.238 1022.96L185.98 928.304L144.377 811.053V811.053Z" fill="#929497"></path><path opacity="0.43" d="M100.993 1011.01L-9.11517 990.672L-46.5587 885.144L26.1107 799.954L136.219 820.291L173.662 925.819L100.993 1011.01ZM144.291 810.827L21.9467 788.23L-58.795 882.884L-17.1922 1000.13L105.152 1022.73L185.894 928.078L144.291 810.827V810.827Z" fill="#929497"></path><path opacity="0.46" d="M100.908 1010.78L-9.19995 990.447L-46.6435 884.918L26.0259 799.728L136.134 820.065L173.578 925.593L100.908 1010.78ZM144.206 810.602L21.8666 788.005L-58.8751 882.659L-17.2723 999.91L105.072 1022.51L185.814 927.853L144.211 810.603L144.206 810.602Z" fill="#929497"></path><path opacity="0.49" d="M100.823 1010.56L-9.28541 990.221L-46.7289 884.693L25.9404 799.502L136.049 819.839L173.492 925.368L100.823 1010.56ZM144.121 810.376L21.7811 787.78L-58.9605 882.433L-17.3577 999.684L104.987 1022.28L185.728 927.628L144.126 810.377L144.121 810.376Z" fill="#929497"></path><path opacity="0.51" d="M100.743 1010.33L-9.36565 989.996L-46.8092 884.468L25.8602 799.277L135.968 819.614L173.412 925.143L100.743 1010.33ZM144.041 810.151L21.6962 787.554L-59.0455 882.208L-17.4427 999.458L104.902 1022.06L185.643 927.402L144.041 810.151V810.151Z" fill="#929497"></path><path opacity="0.54" d="M100.657 1010.11L-9.4511 989.77L-46.8946 884.242L25.7747 799.052L135.883 819.389L173.326 924.917L100.657 1010.11ZM143.955 809.925L21.6107 787.328L-59.1309 881.982L-17.5281 999.233L104.816 1021.83L185.558 927.176L143.955 809.925V809.925Z" fill="#929497"></path><path opacity="0.57" d="M100.571 1009.89L-9.53687 989.549L-46.9804 884.021L25.689 798.831L135.797 819.168L173.241 924.696L100.571 1009.89ZM143.869 809.704L21.5297 787.108L-59.212 881.762L-17.6092 999.013L104.735 1021.61L185.477 926.956L143.874 809.705L143.869 809.704Z" fill="#929497"></path><path opacity="0.6" d="M100.491 1009.66L-9.61759 989.324L-47.0611 883.796L25.6082 798.606L135.716 818.943L173.16 924.471L100.491 1009.66ZM143.789 809.479L21.4442 786.882L-59.2975 881.536L-17.6946 998.787L104.65 1021.38L185.391 926.73L143.789 809.479V809.479Z" fill="#929497"></path><path opacity="0.63" d="M100.405 1009.44L-9.70354 989.099L-47.147 883.57L25.5223 798.38L135.63 818.717L173.074 924.245L100.405 1009.44ZM143.703 809.254L21.3583 786.656L-59.3834 881.31L-17.7806 998.561L104.564 1021.16L185.306 926.504L143.703 809.254V809.254Z" fill="#929497"></path><path opacity="0.66" d="M100.32 1009.21L-9.78834 988.873L-47.2319 883.345L25.4375 798.154L135.546 818.491L172.989 924.019L100.32 1009.21ZM143.618 809.028L21.2782 786.432L-59.4635 881.085L-17.8607 998.336L104.484 1020.93L185.225 926.28L143.623 809.029L143.618 809.028Z" fill="#929497"></path><path opacity="0.69" d="M100.234 1008.98L-9.87378 988.647L-47.3173 883.119L25.3521 797.928L135.46 818.265L172.904 923.794L100.234 1008.98ZM143.532 808.802L21.1927 786.206L-59.5489 880.86L-17.9461 998.11L104.398 1020.71L185.14 926.054L143.537 808.803L143.532 808.802Z" fill="#929497"></path><path opacity="0.71" d="M100.154 1008.76L-9.9545 988.422L-47.398 882.894L25.2713 797.703L135.379 818.041L172.823 923.569L100.154 1008.76ZM143.452 808.577L21.1073 785.98L-59.6344 880.634L-18.0316 997.885L104.313 1020.48L185.055 925.828L143.452 808.577V808.577Z" fill="#929497"></path><path opacity="0.74" d="M100.069 1008.53L-10.0395 988.196L-47.483 882.668L25.1864 797.478L135.295 817.815L172.738 923.343L100.069 1008.53ZM143.367 808.351L21.0223 785.754L-59.7193 880.408L-18.1165 997.659L104.228 1020.26L184.97 925.602L143.367 808.351V808.351Z" fill="#929497"></path><path opacity="0.77" d="M99.9829 1008.31L-10.1253 987.975L-47.5688 882.447L25.1006 797.257L135.209 817.594L172.652 923.122L99.9829 1008.31ZM143.281 808.131L20.9413 785.534L-59.8004 880.188L-18.1976 997.439L104.147 1020.04L184.889 925.382L143.286 808.131L143.281 808.131Z" fill="#929497"></path><path opacity="0.8" d="M99.9017 1008.09L-10.2065 987.75L-47.65 882.222L25.0194 797.032L135.128 817.369L172.571 922.897L99.9017 1008.09ZM143.2 807.906L20.8553 785.308L-59.8863 879.962L-18.2835 997.213L104.061 1019.81L184.803 925.156L143.2 807.906V807.906Z" fill="#929497"></path><path opacity="0.83" d="M99.8167 1007.86L-10.2914 987.525L-47.7349 881.997L24.9344 796.806L135.043 817.143L172.486 922.671L99.8167 1007.86ZM143.115 807.68L20.7704 785.083L-59.9713 879.736L-18.3685 996.987L103.976 1019.58L184.718 924.931L143.115 807.68V807.68Z" fill="#929497"></path><path opacity="0.86" d="M99.7314 1007.64L-10.3767 987.299L-47.8202 881.771L24.8491 796.58L134.957 816.917L172.401 922.446L99.7314 1007.64ZM143.03 807.454L20.6898 784.858L-60.0518 879.512L-18.449 996.762L103.895 1019.36L184.637 924.706L143.034 807.455L143.03 807.454Z" fill="#929497"></path><path opacity="0.89" d="M99.6464 1007.41L-10.4617 987.073L-47.9052 881.545L24.7641 796.355L134.872 816.692L172.316 922.22L99.6464 1007.41ZM142.945 807.228L20.6049 784.632L-60.1368 879.286L-18.534 996.537L103.81 1019.13L184.552 924.48L142.949 807.229L142.945 807.228Z" fill="#929497"></path><path opacity="0.91" d="M99.5652 1007.19L-10.5429 986.848L-47.9864 881.32L24.6829 796.13L134.791 816.467L172.235 921.995L99.5652 1007.19ZM142.863 807.003L20.5189 784.406L-60.2227 879.06L-18.6199 996.311L103.725 1018.91L184.466 924.254L142.863 807.003V807.003Z" fill="#929497"></path><path opacity="0.94" d="M99.4798 1006.96L-10.6283 986.623L-48.0719 881.094L24.5975 795.904L134.706 816.241L172.149 921.769L99.4798 1006.96ZM142.778 806.778L20.4335 784.181L-60.3082 878.834L-18.7054 996.085L103.639 1018.68L184.381 924.028L142.778 806.778V806.778Z" fill="#929497"></path><path opacity="0.97" d="M99.394 1006.74L-10.7141 986.402L-48.1576 880.873L24.5117 795.683L134.62 816.02L172.063 921.548L99.394 1006.74ZM142.692 806.557L20.3524 783.96L-60.3892 878.614L-18.7864 995.865L103.558 1018.46L184.3 923.808L142.697 806.558L142.692 806.557Z" fill="#929497"></path><path d="M99.3128 1006.51L-10.7953 986.177L-48.2389 880.648L24.4305 795.458L134.539 815.795L171.982 921.323L99.3128 1006.51ZM142.611 806.332L20.2665 783.735L-60.4752 878.388L-18.8724 995.639L103.472 1018.24L184.214 923.582L142.611 806.332V806.332Z" fill="#929497"></path></g><path d="M142.611 806.332L20.2665 783.735L-60.4752 878.388L-18.8724 995.639L103.472 1018.24L184.214 923.582L142.611 806.332ZM99.3128 1006.51L-10.7953 986.177L-48.2389 880.648L24.4305 795.458L134.539 815.795L171.982 921.323L99.3128 1006.51Z" fill="url(#paint8_linear_944_2913)"></path><g style="mix-blend-mode:multiply" opacity="0.8"><path opacity="0.03" d="M85.8278 826.904L-23.298 806.749L-60.4082 702.166L11.6121 617.74L120.738 637.895L157.848 742.478L85.8278 826.904ZM128.742 628.512L7.48819 606.116L-72.5312 699.927L-31.3018 816.132L89.9518 838.527L169.971 744.717L128.742 628.512V628.512Z" fill="#FBFCFC"></path><path opacity="0.06" d="M85.7439 826.674L-23.382 806.518L-60.4922 701.936L11.5281 617.509L120.654 637.665L157.764 742.248L85.7439 826.674ZM128.658 628.282L7.4042 605.886L-72.6152 699.696L-31.3857 815.902L89.8678 838.297L169.887 744.487L128.658 628.282V628.282Z" fill="#F8F8F8"></path><path opacity="0.1" d="M85.6586 826.448L-23.4672 806.293L-60.5775 701.71L11.4428 617.283L120.569 637.439L157.679 742.022L85.6586 826.448ZM128.572 628.056L7.32364 605.661L-72.6958 699.472L-31.4663 815.677L89.7872 838.072L169.807 744.262L128.577 628.057L128.572 628.056Z" fill="#F4F5F5"></path><path opacity="0.13" d="M85.5793 826.219L-23.5465 806.063L-60.6567 701.48L11.3636 617.054L120.489 637.21L157.6 741.792L85.5793 826.219ZM128.493 627.826L7.23965 605.431L-72.7797 699.241L-31.5503 815.446L89.7033 837.842L169.723 744.031L128.493 627.826V627.826Z" fill="#F1F1F2"></path><path opacity="0.16" d="M85.4944 825.988L-23.6315 805.833L-60.7417 701.25L11.2786 616.823L120.404 636.979L157.515 741.562L85.4944 825.988ZM128.408 627.596L7.15468 605.2L-72.8647 699.011L-31.6353 815.216L89.6183 837.611L169.638 743.801L128.408 627.596V627.596Z" fill="#EDEEEE"></path><path opacity="0.19" d="M85.4094 825.762L-23.7164 805.607L-60.8267 701.024L11.1937 616.598L120.319 636.753L157.43 741.336L85.4094 825.762ZM128.323 627.37L7.06973 604.975L-72.9497 698.785L-31.7202 814.99L89.5333 837.386L169.553 743.575L128.323 627.37V627.37Z" fill="#EAEAEB"></path><path opacity="0.23" d="M85.3244 825.532L-23.8014 805.376L-60.9116 700.793L11.1087 616.367L120.235 636.523L157.345 741.106L85.3244 825.532ZM128.238 627.14L6.98476 604.744L-73.0346 698.554L-31.8052 814.759L89.4484 837.155L169.468 743.345L128.238 627.14V627.14Z" fill="#E6E7E8"></path><path opacity="0.26" d="M85.2392 825.306L-23.8867 805.15L-60.9969 700.568L11.0234 616.141L120.149 636.297L157.259 740.88L85.2392 825.306ZM128.153 626.914L6.9042 604.519L-73.1152 698.329L-31.8857 814.534L89.3678 836.93L169.387 743.12L128.158 626.915L128.153 626.914Z" fill="#E3E3E4"></path><path opacity="0.29" d="M85.1599 825.077L-23.9659 804.921L-61.0762 700.338L10.9441 615.912L120.07 636.067L157.18 740.65L85.1599 825.077ZM128.074 626.684L6.8202 604.289L-73.1992 698.099L-31.9697 814.304L89.2838 836.7L169.303 742.889L128.074 626.684V626.684Z" fill="#DFE0E1"></path><path opacity="0.32" d="M85.0744 824.851L-24.0514 804.695L-61.1616 700.112L10.8587 615.686L119.985 635.842L157.095 740.424L85.0744 824.851ZM127.988 626.459L6.73477 604.063L-73.2846 697.873L-32.0552 814.078L89.1984 836.474L169.218 742.664L127.988 626.459V626.459Z" fill="#DCDCDD"></path><path opacity="0.35" d="M84.99 824.62L-24.1359 804.465L-61.2461 699.882L10.7742 615.456L119.9 635.611L157.01 740.194L84.99 824.62ZM127.904 626.228L6.65029 603.832L-73.3691 697.643L-32.1397 813.848L89.1139 836.243L169.133 742.433L127.904 626.228V626.228Z" fill="#D8D9DA"></path><path opacity="0.39" d="M84.905 824.395L-24.2208 804.239L-61.3311 699.656L10.6893 615.23L119.815 635.385L156.925 739.968L84.905 824.395ZM127.819 626.002L6.56533 603.607L-73.4541 697.417L-32.2246 813.622L89.0289 836.018L169.048 742.207L127.819 626.002V626.002Z" fill="#D5D6D7"></path><path opacity="0.42" d="M84.8207 824.164L-24.3051 804.009L-61.4154 699.426L10.6049 614.999L119.731 635.155L156.841 739.738L84.8207 824.164ZM127.735 625.772L6.48574 603.377L-73.5336 697.188L-32.3042 813.393L88.9493 835.788L168.969 741.978L127.739 625.773L127.735 625.772Z" fill="#D1D2D3"></path><path opacity="0.45" d="M84.7405 823.934L-24.3854 803.779L-61.4956 699.196L10.5247 614.77L119.651 634.925L156.761 739.508L84.7405 823.934ZM127.654 625.542L6.40079 603.147L-73.6186 696.957L-32.3892 813.162L88.8644 835.558L168.884 741.747L127.654 625.542V625.542Z" fill="#CECFD0"></path><path opacity="0.48" d="M84.655 823.709L-24.4708 803.553L-61.5811 698.97L10.4393 614.544L119.565 634.7L156.675 739.282L84.655 823.709ZM127.569 625.316L6.31533 602.921L-73.7041 696.731L-32.4746 812.936L88.779 835.332L168.798 741.521L127.569 625.316V625.316Z" fill="#CACBCD"></path><path opacity="0.52" d="M84.5715 823.478L-24.5543 803.323L-61.6646 698.74L10.3558 614.314L119.482 634.469L156.592 739.052L84.5715 823.478ZM127.485 625.086L6.23183 602.69L-73.7876 696.501L-32.5581 812.706L88.6955 835.101L168.715 741.291L127.485 625.086V625.086Z" fill="#C7C8C9"></path><path opacity="0.55" d="M84.4856 823.252L-24.6403 803.097L-61.7505 698.514L10.2698 614.088L119.396 634.243L156.506 738.826L84.4856 823.252ZM127.399 624.86L6.1459 602.465L-73.8735 696.275L-32.644 812.48L88.6095 834.876L168.629 741.065L127.399 624.86V624.86Z" fill="#C3C4C6"></path><path opacity="0.58" d="M84.4016 823.022L-24.7242 802.866L-61.8345 698.284L10.1858 613.857L119.312 634.013L156.422 738.596L84.4016 823.022ZM127.315 624.63L6.06191 602.234L-73.9575 696.045L-32.728 812.25L88.5255 834.645L168.545 740.835L127.315 624.63V624.63Z" fill="#C0C1C3"></path><path opacity="0.61" d="M84.3205 822.797L-24.8053 802.642L-61.9155 698.059L10.1048 613.632L119.231 633.788L156.341 738.371L84.3205 822.797ZM127.234 624.405L5.98086 602.009L-74.0385 695.82L-32.8091 812.025L88.4445 834.42L168.464 740.61L127.234 624.405V624.405Z" fill="#BCBDBF"></path><path opacity="0.65" d="M84.2366 822.567L-24.8893 802.411L-61.9995 697.828L10.0208 613.402L119.147 633.558L156.257 738.14L84.2366 822.567ZM127.15 624.174L5.89687 601.779L-74.1225 695.589L-32.8931 811.794L88.3605 834.19L168.38 740.379L127.15 624.174V624.174Z" fill="#B9BABC"></path><path opacity="0.68" d="M84.1511 822.341L-24.9747 802.185L-62.085 697.603L9.93535 613.176L119.061 633.332L156.171 737.915L84.1511 822.341ZM127.065 623.949L5.81143 601.553L-74.208 695.363L-32.9785 811.568L88.275 833.964L168.294 740.154L127.065 623.949V623.949Z" fill="#B5B7B9"></path><path opacity="0.71" d="M84.0661 822.11L-25.0597 801.955L-62.1699 697.372L9.85039 612.946L118.976 633.101L156.086 737.684L84.0661 822.11ZM126.98 623.718L5.72646 601.322L-74.2929 695.133L-33.0635 811.338L88.1901 833.733L168.209 739.923L126.98 623.718V623.718Z" fill="#B2B3B5"></path><path opacity="0.74" d="M83.9812 821.885L-25.1447 801.729L-62.2549 697.146L9.76543 612.72L118.891 632.876L156.001 737.458L83.9812 821.885ZM126.895 623.492L5.6415 601.097L-74.3779 694.907L-33.1484 811.112L88.1051 833.508L168.124 739.697L126.895 623.492V623.492Z" fill="#AEB0B2"></path><path opacity="0.77" d="M83.9021 821.655L-25.2238 801.5L-62.334 696.917L9.68632 612.49L118.812 632.646L155.922 737.229L83.9021 821.655ZM126.816 623.263L5.5624 600.867L-74.457 694.678L-33.2275 810.883L88.026 833.278L168.045 739.468L126.816 623.263V623.263Z" fill="#ABACAE"></path><path opacity="0.81" d="M83.8176 821.425L-25.3082 801.269L-62.4185 696.686L9.60186 612.26L118.728 632.416L155.838 736.998L83.8176 821.425ZM126.731 623.032L5.47793 600.637L-74.5415 694.447L-33.312 810.652L87.9415 833.048L167.961 739.237L126.731 623.032V623.032Z" fill="#A7A9AB"></path><path opacity="0.84" d="M83.7317 821.199L-25.3942 801.043L-62.5044 696.46L9.51591 612.034L118.642 632.19L155.752 736.772L83.7317 821.199ZM126.646 622.807L5.39199 600.411L-74.6274 694.221L-33.398 810.426L87.8556 832.822L167.875 739.012L126.646 622.807V622.807Z" fill="#A4A5A8"></path><path opacity="0.87" d="M83.6477 820.968L-25.4781 800.813L-62.5884 696.23L9.43193 611.804L118.558 631.959L155.668 736.542L83.6477 820.968ZM126.562 622.576L5.30801 600.181L-74.7114 693.991L-33.4819 810.196L87.7716 832.592L167.791 738.781L126.562 622.576V622.576Z" fill="#A0A2A4"></path><path opacity="0.9" d="M83.5618 820.743L-25.5641 800.587L-62.6743 696.004L9.346 611.578L118.472 631.733L155.582 736.316L83.5618 820.743ZM126.476 622.35L5.22207 599.955L-74.7973 693.765L-33.5679 809.97L87.6857 832.366L167.705 738.555L126.476 622.35V622.35Z" fill="#9D9EA1"></path><path opacity="0.94" d="M83.4784 820.512L-25.6474 800.357L-62.7577 695.774L9.26266 611.348L118.389 631.503L155.499 736.086L83.4784 820.512ZM126.392 622.12L5.14346 599.725L-74.8759 693.536L-33.6465 809.741L87.6071 832.136L167.626 738.326L126.397 622.121L126.392 622.12Z" fill="#999B9E"></path><path opacity="0.97" d="M83.3972 820.287L-25.7286 800.132L-62.8389 695.549L9.18145 611.123L118.307 631.278L155.418 735.861L83.3972 820.287ZM126.311 621.895L5.05752 599.499L-74.9619 693.31L-33.7324 809.515L87.5211 831.91L167.541 738.1L126.311 621.895V621.895Z" fill="#96979A"></path><path d="M83.3132 820.057L-25.8126 799.901L-62.9229 695.319L9.09745 610.892L118.223 631.048L155.334 735.631L83.3132 820.057ZM126.227 621.665L4.97353 599.269L-75.0459 693.079L-33.8164 809.284L87.4372 831.68L167.457 737.87L126.227 621.665V621.665Z" fill="#929497"></path></g><path d="M126.227 621.665L4.97353 599.269L-75.0459 693.079L-33.8164 809.284L87.4372 831.68L167.457 737.87L126.227 621.665ZM83.3132 820.057L-25.8126 799.901L-62.9229 695.319L9.09745 610.892L118.223 631.048L155.334 735.631L83.3132 820.057Z" fill="url(#paint9_linear_944_2913)"></path><path d="M13.3486 762.043L-128.444 735.854L-176.66 599.966L-83.0829 490.263L58.7094 516.452L106.926 652.34L13.3495 762.038L13.3486 762.043ZM-127.77 735.065L12.997 761.065L105.9 652.155L58.0306 517.245L-82.7368 491.245L-175.64 600.154L-127.77 735.065Z" fill="url(#paint10_linear_944_2913)"></path><g style="mix-blend-mode:multiply"><path opacity="0.03" d="M84.1106 791.781L60.2211 724.451L-10.0328 711.475L-56.3972 765.829L-32.5086 833.163L37.7453 846.139L84.1106 791.781Z" stroke="#FCFCFC" stroke-width="0.5" stroke-miterlimit="10"></path><path opacity="0.06" d="M84.0293 791.561L60.1352 724.23L-10.1187 711.254L-56.4831 765.608L-32.5936 832.938L37.6602 845.913L84.0293 791.561Z" stroke="#F9F9F9" stroke-width="0.5" stroke-miterlimit="10"></path><path opacity="0.09" d="M83.944 791.335L60.0546 724.005L-10.1992 711.029L-56.5637 765.383L-32.6742 832.713L37.5796 845.689L83.944 791.335Z" stroke="#F6F6F6" stroke-width="0.5" stroke-miterlimit="10"></path><path opacity="0.11" d="M83.8596 791.109L59.9701 723.78L-10.2837 710.804L-56.6481 765.157L-32.7587 832.487L37.4952 845.463L83.8596 791.109Z" stroke="#F3F3F3" stroke-width="0.5" stroke-miterlimit="10"></path><path opacity="0.14" d="M83.7736 790.883L59.8842 723.554L-10.3697 710.578L-56.7341 764.932L-32.8446 832.261L37.4093 845.237L83.7736 790.883Z" stroke="#EFF0F0" stroke-width="0.5" stroke-miterlimit="10"></path><path opacity="0.17" d="M83.6929 790.659L59.8035 723.329L-10.4551 710.352L-56.8195 764.706L-32.9301 832.035L37.3285 845.012L83.6929 790.659Z" stroke="#ECEDED" stroke-width="0.5" stroke-miterlimit="10"></path><path opacity="0.2" d="M83.6081 790.433L59.7187 723.103L-10.5352 710.127L-56.8996 764.481L-33.0101 831.811L37.2437 844.787L83.6081 790.433Z" stroke="#E9EAEA" stroke-width="0.5" stroke-miterlimit="10"></path><path opacity="0.23" d="M83.5222 790.207L59.6327 722.877L-10.6211 709.901L-56.9855 764.255L-33.097 831.589L37.1569 844.565L83.5222 790.207Z" stroke="#E6E7E7" stroke-width="0.5" stroke-miterlimit="10"></path><path opacity="0.26" d="M83.4415 789.987L59.5473 722.656L-10.7066 709.681L-57.071 764.034L-33.1815 831.364L37.0723 844.34L83.4415 789.987Z" stroke="#E3E3E4" stroke-width="0.5" stroke-miterlimit="10"></path><path opacity="0.29" d="M83.3557 789.761L59.4662 722.432L-10.7876 709.456L-57.152 763.809L-33.2626 831.139L36.9913 844.115L83.3557 789.761Z" stroke="#E0E0E1" stroke-width="0.5" stroke-miterlimit="10"></path><path opacity="0.31" d="M83.2712 789.535L59.3817 722.206L-10.8721 709.23L-57.2365 763.584L-33.3471 830.913L36.9068 843.889L83.2712 789.535Z" stroke="#DDDDDE" stroke-width="0.5" stroke-miterlimit="10"></path><path opacity="0.34" d="M83.1853 789.31L59.2958 721.98L-10.958 709.004L-57.3224 763.358L-33.433 830.687L36.8209 843.663L83.1853 789.31Z" stroke="#DADADB" stroke-width="0.5" stroke-miterlimit="10"></path><path opacity="0.37" d="M83.1045 789.085L59.2151 721.755L-11.0435 708.778L-57.4079 763.132L-33.5185 830.462L36.7401 843.438L83.1045 789.085Z" stroke="#D7D7D8" stroke-width="0.5" stroke-miterlimit="10"></path><path opacity="0.4" d="M83.0197 788.859L59.1303 721.529L-11.1236 708.553L-57.488 762.907L-33.5985 830.237L36.6553 843.213L83.0197 788.859Z" stroke="#D3D4D5" stroke-width="0.5" stroke-miterlimit="10"></path><path opacity="0.43" d="M82.9343 788.633L59.0449 721.304L-11.209 708.328L-57.5734 762.681L-33.6848 830.016L36.569 842.992L82.9343 788.633Z" stroke="#D0D1D2" stroke-width="0.5" stroke-miterlimit="10"></path><path opacity="0.46" d="M82.8526 788.413L58.9584 721.083L-11.2954 708.107L-57.6598 762.46L-33.7704 829.79L36.4835 842.766L82.8526 788.413Z" stroke="#CDCECF" stroke-width="0.5" stroke-miterlimit="10"></path><path opacity="0.49" d="M82.7673 788.187L58.8779 720.858L-11.376 707.882L-57.7404 762.235L-33.851 829.565L36.4029 842.541L82.7673 788.187Z" stroke="#CACBCC" stroke-width="0.5" stroke-miterlimit="10"></path><path opacity="0.51" d="M82.6819 787.962L58.7924 720.632L-11.4614 707.656L-57.8259 762.01L-33.9364 829.339L36.3174 842.315L82.6819 787.962Z" stroke="#C7C8CA" stroke-width="0.5" stroke-miterlimit="10"></path><path opacity="0.54" d="M82.5964 787.736L58.7069 720.406L-11.5469 707.43L-57.9113 761.784L-34.0219 829.114L36.232 842.089L82.5964 787.736Z" stroke="#C4C5C7" stroke-width="0.5" stroke-miterlimit="10"></path><path opacity="0.57" d="M82.5167 787.511L58.6272 720.181L-11.6314 707.205L-57.9958 761.558L-34.1063 828.888L36.1522 841.865L82.5167 787.511Z" stroke="#C1C2C4" stroke-width="0.5" stroke-miterlimit="10"></path><path opacity="0.6" d="M82.4309 787.285L58.5414 719.956L-11.7124 706.98L-58.0768 761.333L-34.1874 828.663L36.0665 841.639L82.4309 787.285Z" stroke="#BEBFC1" stroke-width="0.5" stroke-miterlimit="10"></path><path opacity="0.63" d="M82.3459 787.059L58.4565 719.73L-11.7974 706.754L-58.1618 761.108L-34.2732 828.442L35.9806 841.418L82.3459 787.059Z" stroke="#BABCBE" stroke-width="0.5" stroke-miterlimit="10"></path><path opacity="0.66" d="M82.2642 786.839L58.3701 719.509L-11.8838 706.533L-58.2482 760.887L-34.3588 828.216L35.8951 841.192L82.2642 786.839Z" stroke="#B7B9BB" stroke-width="0.5" stroke-miterlimit="10"></path><path opacity="0.69" d="M82.1794 786.614L58.29 719.284L-11.9639 706.308L-58.3283 760.662L-34.4389 827.991L35.815 840.967L82.1794 786.614Z" stroke="#B4B6B8" stroke-width="0.5" stroke-miterlimit="10"></path><path opacity="0.71" d="M82.0935 786.388L58.204 719.058L-12.0498 706.082L-58.4142 760.436L-34.5248 827.766L35.7291 840.741L82.0935 786.388Z" stroke="#B1B3B5" stroke-width="0.5" stroke-miterlimit="10"></path><path opacity="0.74" d="M82.008 786.162L58.1186 718.832L-12.1353 705.856L-58.4997 760.21L-34.6102 827.54L35.6436 840.516L82.008 786.162Z" stroke="#AEB0B2" stroke-width="0.5" stroke-miterlimit="10"></path><path opacity="0.77" d="M81.9283 785.937L58.0388 718.608L-12.2198 705.631L-58.5842 759.985L-34.6947 827.314L35.5639 840.291L81.9283 785.937Z" stroke="#ABACAF" stroke-width="0.5" stroke-miterlimit="10"></path><path opacity="0.8" d="M81.842 785.711L57.9526 718.382L-12.3013 705.406L-58.6657 759.759L-34.7763 827.089L35.4776 840.065L81.842 785.711Z" stroke="#A8A9AC" stroke-width="0.5" stroke-miterlimit="10"></path><path opacity="0.83" d="M81.7575 785.486L57.8681 718.156L-12.3858 705.18L-58.7502 759.534L-34.8616 826.868L35.3922 839.844L81.7575 785.486Z" stroke="#A5A6A9" stroke-width="0.5" stroke-miterlimit="10"></path><path opacity="0.86" d="M81.6758 785.266L57.7817 717.935L-12.4722 704.959L-58.8366 759.313L-34.9472 826.642L35.3067 839.618L81.6758 785.266Z" stroke="#A2A3A6" stroke-width="0.5" stroke-miterlimit="10"></path><path opacity="0.89" d="M81.591 785.04L57.7016 717.71L-12.5523 704.734L-58.9167 759.088L-35.0272 826.418L35.2266 839.393L81.591 785.04Z" stroke="#9EA0A3" stroke-width="0.5" stroke-miterlimit="10"></path><path opacity="0.91" d="M81.5051 784.814L57.6157 717.484L-12.6382 704.508L-59.0026 758.862L-35.1132 826.192L35.1407 839.168L81.5051 784.814Z" stroke="#9B9DA0" stroke-width="0.5" stroke-miterlimit="10"></path><path opacity="0.94" d="M81.4197 784.588L57.5302 717.259L-12.7237 704.283L-59.0881 758.636L-35.1986 825.966L35.0552 838.942L81.4197 784.588Z" stroke="#989A9D" stroke-width="0.5" stroke-miterlimit="10"></path><path opacity="0.97" d="M81.3389 784.363L57.4495 717.034L-12.8091 704.057L-59.1735 758.411L-35.2841 825.74L34.9745 838.717L81.3389 784.363Z" stroke="#95979A" stroke-width="0.5" stroke-miterlimit="10"></path><path d="M57.3647 716.808L-12.8892 703.832L-59.2536 758.186L-35.3641 825.515L34.8897 838.491L81.2541 784.138L57.3647 716.808Z" stroke="#929497" stroke-width="0.5" stroke-miterlimit="10"></path></g><path d="M57.3647 716.808L-12.8892 703.832L-59.2536 758.186L-35.3641 825.515L34.8897 838.491L81.2541 784.138L57.3647 716.808Z" fill="url(#paint11_linear_944_2913)"></path><circle id="add-1" cx="654.389" cy="526.389" r="5.38923" fill="url(#paint12_radial_944_2913)"></circle><circle id="add-2" cx="806.761" cy="808.761" r="8.76136" fill="url(#paint13_radial_944_2913)"></circle><circle id="add-3" cx="1049.02" cy="751.022" r="12.0221" fill="url(#paint14_radial_944_2913)"></circle><circle id="add-4" cx="1113.52" cy="594.523" r="17.5227" fill="url(#paint15_radial_944_2913)"></circle><circle id="add-5" cx="1214" cy="856" r="26" fill="url(#paint16_radial_944_2913)" fill-opacity="0.2"></circle></g><defs><linearGradient id="paint0_linear_944_2913" x1="960" y1="0" x2="960" y2="900" gradientUnits="userSpaceOnUse"><stop stop-color="white" stop-opacity="0"></stop><stop offset="1" stop-color="#FAFAFA"></stop></linearGradient><linearGradient id="paint1_linear_944_2913" x1="1737.3" y1="1085.03" x2="1418.97" y2="737.031" gradientUnits="userSpaceOnUse"><stop stop-color="#D0D0FF"></stop><stop offset="1" stop-color="#5050FD"></stop></linearGradient><linearGradient id="paint2_linear_944_2913" x1="1739.72" y1="220.599" x2="1683.57" y2="214.529" gradientUnits="userSpaceOnUse"><stop stop-color="#6666FD"></stop><stop offset="1" stop-color="#D0D0FF"></stop></linearGradient><linearGradient id="paint3_linear_944_2913" x1="-65.8429" y1="510.33" x2="50.773" y2="531.869" gradientUnits="userSpaceOnUse"><stop stop-color="#FFAF5F"></stop><stop offset="1" stop-color="#F69321"></stop></linearGradient><linearGradient id="paint4_linear_944_2913" x1="97.725" y1="969.553" x2="298.248" y2="1006.59" gradientUnits="userSpaceOnUse"><stop stop-color="#4E62B5"></stop><stop offset="1" stop-color="#2A3A8C"></stop></linearGradient><linearGradient id="paint5_linear_944_2913" x1="-170.152" y1="973.407" x2="72.3506" y2="1018.2" gradientUnits="userSpaceOnUse"><stop stop-color="#FFAF5F"></stop><stop offset="1" stop-color="#F69321"></stop></linearGradient><linearGradient id="paint6_linear_944_2913" x1="-141.206" y1="978.753" x2="43.406" y2="1012.85" gradientUnits="userSpaceOnUse"><stop stop-color="white"></stop><stop offset="1" stop-color="#D0D2D3"></stop></linearGradient><linearGradient id="paint7_linear_944_2913" x1="186.32" y1="832.274" x2="370.007" y2="866.201" gradientUnits="userSpaceOnUse"><stop stop-color="#4E62B5"></stop><stop offset="1" stop-color="#2A3A8C"></stop></linearGradient><linearGradient id="paint8_linear_944_2913" x1="-60.4752" y1="878.388" x2="184.214" y2="923.582" gradientUnits="userSpaceOnUse"><stop stop-color="#4E62B5"></stop><stop offset="1" stop-color="#2A3A8C"></stop></linearGradient><linearGradient id="paint9_linear_944_2913" x1="-75.0459" y1="693.079" x2="167.457" y2="737.87" gradientUnits="userSpaceOnUse"><stop stop-color="#FFAF5F"></stop><stop offset="1" stop-color="#F69321"></stop></linearGradient><linearGradient id="paint10_linear_944_2913" x1="-176.66" y1="599.966" x2="106.92" y2="652.343" gradientUnits="userSpaceOnUse"><stop stop-color="#FFAF5F"></stop><stop offset="1" stop-color="#F69321"></stop></linearGradient><linearGradient id="paint11_linear_944_2913" x1="-59.2536" y1="758.186" x2="81.2541" y2="784.138" gradientUnits="userSpaceOnUse"><stop stop-color="#4E62B5"></stop><stop offset="1" stop-color="#2A3A8C"></stop></linearGradient><radialGradient id="paint12_radial_944_2913" cx="0" cy="0" r="1" gradientUnits="userSpaceOnUse" gradientTransform="translate(651.695 528.335) rotate(-37.7939) scale(9.28265)"><stop stop-color="#CC640E"></stop><stop offset="1" stop-color="#FF9D4D"></stop></radialGradient><radialGradient id="paint13_radial_944_2913" cx="0" cy="0" r="1" gradientUnits="userSpaceOnUse" gradientTransform="translate(802.381 811.925) rotate(-37.7939) scale(15.091)"><stop stop-color="#2B2CFF"></stop><stop offset="1" stop-color="#A7A3D4"></stop></radialGradient><radialGradient id="paint14_radial_944_2913" cx="0" cy="0" r="1" gradientUnits="userSpaceOnUse" gradientTransform="translate(1043.01 755.363) rotate(-37.7939) scale(20.7075)"><stop stop-color="#D9AC3E"></stop><stop offset="1" stop-color="#FFEE50"></stop></radialGradient><radialGradient id="paint15_radial_944_2913" cx="0" cy="0" r="1" gradientUnits="userSpaceOnUse" gradientTransform="translate(1104.76 600.85) rotate(-37.7939) scale(30.1819)"><stop stop-color="#2B2CFF"></stop><stop offset="1" stop-color="#B0B0FF"></stop></radialGradient><radialGradient id="paint16_radial_944_2913" cx="0" cy="0" r="1" gradientUnits="userSpaceOnUse" gradientTransform="translate(1201 865.389) rotate(-37.7939) scale(44.7836)"><stop stop-color="#7F80FF"></stop><stop offset="1" stop-color="#5050FD"></stop></radialGradient></defs></svg>